<?xml version="1.0" encoding="utf-8"?>
<!-- Generator: Adobe Illustrator 21.1.0, SVG Export Plug-In . SVG Version: 6.00 Build 0)  -->
<svg version="1.1" id="Calque_1" xmlns="http://www.w3.org/2000/svg" xmlns:xlink="http://www.w3.org/1999/xlink" x="0px" y="0px"
	 viewBox="0 0 948.1 869.2" style="enable-background:new 0 0 948.1 869.2;" xml:space="preserve">
<style type="text/css">
	.st0{fill:#AAAAAA;}
	.st1{fill:#232323;}
	.st2{fill:#303D89;}
	.st3{fill:#E2E2E2;}
	.st4{fill:#3B3B72;}
	.st5{fill:#BABABA;}
	.st6{fill:#DDC3AA;}
	.st7{fill:#5B422D;}
	.st8{fill:#E5E5E5;}
	.st9{fill:#F47171;stroke:#E5E5E5;stroke-miterlimit:10;}
	.st10{opacity:0.75;}
	.st11{fill:#211710;}
	.st12{fill:none;stroke:#5B422D;stroke-width:6;stroke-linecap:round;stroke-linejoin:round;}
	.st13{fill:#E4BA97;}
	.st14{fill:#C0F2F9;}
	.st15{fill:#82E5F3;}
	.st16{fill:#FFFFFF;}
	.st17{fill:#43D8ED;}
	.st18{fill:#49BCCD;}
	.st19{fill:#D4F8F5;}
	.st20{fill:#2F4859;}
	.st21{fill:#FCD462;}
	.st22{fill:#F6C358;}
	.st23{fill:#64798A;}
	.st24{fill:#3A556A;}
	.st25{fill:#212F3E;}
	.st26{fill:#6B5B4B;}
	.st27{fill:#F0C419;}
	.st28{fill:#BCB3AA;}
	.st29{fill:#F7EEE4;}
	.st30{fill:#E57E25;}
	.st31{fill:#77B8E8;}
	.st32{fill:#009BDE;}
	.st33{fill:#333E48;}
	.st34{fill:#492510;}
	.st35{fill:#A45D31;}
	.st36{fill:#7FABDA;}
	.st37{fill:#A1C8EC;}
	.st38{fill:#553323;}
	.st39{fill:#684233;}
	.st40{fill:#E2574C;}
	.st41{fill:#D05046;}
	.st42{fill:#F0DDAB;}
	.st43{fill:#CCD0D2;}
	.st44{fill:#D8C69A;}
	.st45{fill:#BCC0C2;}
	.st46{fill:#AEB1B3;}
</style>
<title>Fichier 1</title>
<g>
	<g id="Calque_2">
		<g id="Calque_2-2">
			<path class="st0" d="M491.5,570.2l25.7-3.7c1.7-0.2,3.3,0.9,3.5,2.6l1.3,8.9c0.2,1.7-0.9,3.3-2.6,3.5l-25.7,3.7
				c-1.7,0.2-3.3-0.9-3.5-2.6l-1.3-8.9C488.6,572,489.8,570.4,491.5,570.2z"/>
			<path class="st0" d="M459.6,608.2l21.4-1.7c1.7-0.1,3.2,1.1,3.4,2.9l0.7,9.2c0.1,1.7-1.1,3.2-2.9,3.4l-21.4,1.7
				c-1.7,0.1-3.2-1.1-3.4-2.9l-0.7-9.2C456.6,609.8,457.8,608.3,459.6,608.2z"/>
			<path class="st1" d="M504.2,565c0,0,8.7,9.5,4.7,20.5c13.4,5,17,14.2,17.9,18.4c0.5,2.3,1.1,4.5,1.9,6.7l1,2.8
				c0.9,2.6,3.5,4.1,6.2,3.6c1-0.2,1.8-0.7,2-1.6c0.6-2.8-8-30.7-13.9-36.3c-0.7-0.7-0.8-1.7-0.3-2.6c0.6-0.9,1.4-1.6,2.4-2
				c0,0,2.6-15-15.7-10.7L504.2,565z"/>
			<path id="Pantalon" class="st2" d="M501.4,581.4l-1.7-9.9c-0.5-2.6-2.9-4.4-5.5-4c-18.8,2.6-88.4,11.8-106.7,6.4
				c-15.5-5.7,52.4-18.3,86.4-24.1c16.4-2.8,33.2-2.9,49.7-0.2c18.6,3.1,46,9.3,83.9,21.8c42.2,18.8-97.9,30.2-125.6,32.2
				c-2.6,0.2-4.6,2.4-4.6,5l0.2,9.6c0.1,2.7,2.3,4.9,5,4.8c0.1,0,0.3,0,0.4,0c24.4-2.4,125.4-12.9,138.3-19.5
				c56.7-19.4-12.1-58.8-12.1-58.8S569,513,550.2,510.1s-106.4-0.6-106.4-0.6l-86.4,52.7c-6.7,2.1-35.5,27.1,17.5,34.2
				c45.1,6,105.7-5.7,122.7-9.4C500.2,586.5,501.9,584,501.4,581.4z"/>
			<g id="tshirt">
				<path class="st3" d="M713.8,456.1c0,1.9-1.5,3.6-3.4,3.6c0,0-0.1,0-0.1,0c-12.3,0-52.7-0.4-58.7-2.5c-6.9-2.4-37.3-8-77.1-38.8
					c-0.9-0.7-2.1-0.5-2.8,0.3c-0.3,0.4-0.4,0.8-0.4,1.3c3,60.1,39,99.3,48,108.3c1.2,1.2,1.4,3,0.5,4.4l-3.8,6.2
					c-1,1.7-3.2,2.2-4.9,1.1c-0.1-0.1-0.3-0.2-0.4-0.3c-12.4-10.4-57.1-51.4-62.1-102.9c0-0.2-0.2-0.3-0.4-0.3
					c-0.2,0-0.3,0.1-0.3,0.3c-1.3,37.3-1.3,73.5-1.3,73.5s-60.2,13-102.8-0.8c0,0,0-36.2-1.3-73.5c0-0.2-0.1-0.3-0.3-0.3
					c-0.2,0-0.3,0.1-0.3,0.3c-5,51.5-49.7,92.4-62.1,102.9c-1.5,1.3-3.7,1.1-5-0.4c-0.1-0.1-0.2-0.3-0.3-0.4l-3.8-6.2
					c-0.9-1.4-0.6-3.2,0.5-4.4c9-8.9,45-48.1,48-108.2c0-1.1-0.8-2-1.9-2c-0.5,0-0.9,0.1-1.3,0.4c-39.8,30.9-70.3,36.4-77.1,38.8
					c-6,2.1-46.5,2.4-58.7,2.5c-1.9,0-3.5-1.5-3.5-3.5c0,0,0-0.1,0-0.1c0.1-3,0.4-6.1,1-9c0.3-1.6,1.7-2.7,3.3-2.8
					c13.5-0.7,37.3-4.6,51.3-7c7.5-1.3,14.7-4,21.2-7.9c16.2-9.8,47.1-29,52.5-37.5c0.6-0.9,0.3-2.1-0.6-2.7c-0.3-0.2-0.6-0.3-1-0.3
					c-14.7-0.2-37.9-8.9-55.8-16.6c-16-6.9-30.6-16.9-42.8-29.4l-25.9-26.4c-1.4-1.4-1.3-3.6,0.1-5c0.2-0.2,0.4-0.3,0.6-0.5l6.2-3.9
					c1.5-0.9,3.4-0.7,4.5,0.7c7,8,31.6,34.6,54.4,41.7c22.8,7,75.4,14.9,91.2,17.2c3,0.4,6-0.1,8.7-1.5l9-4.8
					c4.5-2.4,9.2-4.4,14.1-5.9l0.7-0.2c1.5-0.5,3.1-0.9,4.7-1.3c3.6-0.9,7.3-1.5,11-1.9c6.9-0.8,13.9-0.7,20.8,0.3l1.4,0.2
					c3.5,0.5,7,1.2,10.4,2.1c1.9,0.5,3.8,1.1,5.7,1.8c4.1,1.4,8,3.1,11.9,5.2l10.1,5.4c2.6,1.4,5.7,1.9,8.6,1.5
					c15.8-2.3,68.4-10.2,91.2-17.2s47.4-33.7,54.4-41.7c1.1-1.3,3.1-1.6,4.5-0.7l6.2,3.9c1.6,1,2.1,3.2,1.1,4.9
					c-0.1,0.2-0.3,0.4-0.5,0.6l-25.9,26.4c-12.2,12.5-26.8,22.5-42.8,29.4c-17.9,7.7-41.1,16.4-55.8,16.6c-1.1,0-1.9,0.9-1.9,2
					c0,0.4,0.1,0.7,0.3,1c5.4,8.5,36.2,27.8,52.5,37.5c6.5,3.9,13.7,6.6,21.2,7.9c14,2.4,37.8,6.3,51.3,7c1.6,0.1,2.9,1.2,3.2,2.8
					C713.4,450,713.7,453,713.8,456.1z"/>
				<path class="st4" d="M492.3,496.8l-6-11.6c-0.8-1.4-1.1-3.1-0.9-4.7l8.9-72.8h3.2l5,73.2c0.1,1.6-0.2,3.1-1,4.5l-6.4,11.6
					c-0.4,0.7-1.4,1-2.1,0.6C492.7,497.3,492.4,497,492.3,496.8z"/>
				<path class="st4" d="M513,383.8c-1.3,1.6-2.5,3.3-3.7,4.9s-2.4,3.3-3.7,4.9c-1.2,1.6-2.4,3.3-3.6,5l-1.8,2.5
					c-0.7,0.8-1.1,1.7-1.3,2.8l-0.1,0.6h-5.5l0-0.6c0-0.6-0.1-1.1-0.4-1.6c-0.3-0.5-0.6-0.9-0.9-1.3l-1.9-2.6
					c-1.3-1.7-2.6-3.4-3.8-5.1c-1.3-1.7-2.6-3.4-3.9-5.1c-1.3-1.7-2.7-3.3-4.1-5c-1.2-1.5-1.1-3.7,0.4-4.9c1.5-1.2,3.7-1.1,4.9,0.4
					c0.2,0.3,0.4,0.6,0.6,0.9c0.8,2,1.7,3.9,2.5,5.9c0.9,2,1.8,3.9,2.7,5.8c0.9,1.9,1.8,3.9,2.8,5.7l1.4,2.9c0.2,0.5,0.4,1,0.7,1.4
					c0.3,0.5,0.7,0.9,1.3,1.1l-1.1-0.6h3.3l-1.1,0.6c0.8-0.7,1.4-1.5,1.8-2.5l1.3-2.8c0.9-1.8,1.7-3.7,2.6-5.5
					c0.9-1.8,1.7-3.7,2.5-5.6c0.8-1.9,1.7-3.7,2.4-5.6c0.7-1.7,2.6-2.4,4.3-1.8c1.7,0.7,2.4,2.6,1.8,4.3
					C513.3,383.3,513.2,383.5,513,383.8z"/>
				<path class="st5" d="M485.3,380.1l-16.2,14.5c-0.4,0.4-1,0.3-1.4-0.1c-0.2-0.2-0.3-0.4-0.3-0.7l1-40.3l0.7-0.2
					c1.5-0.5,3.1-0.9,4.7-1.3l11.7,26.9C485.7,379.4,485.6,379.8,485.3,380.1z"/>
				<path class="st5" d="M524,393.9c0,0.5-0.4,1-0.9,1c-0.3,0-0.5-0.1-0.7-0.3l-16.2-14.5c-0.3-0.3-0.4-0.7-0.2-1.1l11.4-26.2
					c1.9,0.5,3.8,1.1,5.7,1.8L524,393.9z"/>
			</g>
			<path class="st6" d="M520.1,353.7c0,0-7-8.4-4.6-18.9c1.3-5.7-9.4-1.3-19.5,0.5c-10-1.8-20.7-6.2-19.5-0.5
				c2.3,10.4-4.6,17.8-4.6,17.8l24,53.7v0.1l0,0.1v0v0l0-0.1v-0.1l11.4-24.9L520.1,353.7z"/>
			<circle class="st4" cx="496" cy="405.3" r="4.2"/>
			<ellipse class="st6" cx="540.5" cy="279.9" rx="9" ry="15.1"/>
			<ellipse class="st6" cx="451.7" cy="279.9" rx="9" ry="15.1"/>
			<path id="cheveu_barbe" class="st7" d="M542.3,240.1c-3.8-13.8-13.3-27.9-35.8-31.3c-42.3-6.3-54.9,16.8-56.9,21.3
				c-0.2,0.5-0.2,1-0.1,1.4l1.7,5.5c0.3,0.9-0.1,1.8-0.8,2.3l-3.1,2.1c-0.5,0.4-0.9,1-0.9,1.7c-0.1,7.6-0.6,53.8,9.2,67.2l0,0
				c6.8,17.6,22.2,29.8,40.2,29.8c20.3,0,37.4-15.7,42.4-37l0,0C538.3,303.3,550.7,264.7,542.3,240.1z"/>
			<path id="visage" class="st6" d="M538.6,250.9c-0.1-0.6-0.7-0.9-1.2-0.8c-0.2,0-0.3,0.1-0.4,0.2c-2.4,1.9-8.2,5.1-17.4,2.7
				c-4.4-1.3-8.5-3.5-11.8-6.7c-22.4-20.5-50.8-11.9-55.5,2.9c-2.5,7.9-2.4,17.5-1.8,24.9l0,0c0.2,2,0.4,3.9,0.6,5.6
				c0.8,6.4,3.1,12.6,6.6,18c3.4,5.2,7.9,9.5,13.3,12.6c0.6,0.3,1.3,0.2,1.7-0.3c4.8-5.7,13.2-9.6,22.8-9.6h0.4h0.4
				c9.6,0,18,3.8,22.8,9.6c0.4,0.5,1.2,0.6,1.7,0.3c5.4-3.1,9.9-7.4,13.2-12.6c3.5-5.4,5.7-11.6,6.6-18c0.2-1.1,0.3-2.3,0.4-3.6
				c0.1-1.3,0.2-2.6,0.1-3.9C540.8,264.9,540,257.8,538.6,250.9z"/>
			<g id="BOUCHE">
				<path class="st8" d="M482.8,311.7c0,0.2,0,0.3,0,0.5c0,6.9,6,12.4,13.3,12.4s13.3-5.6,13.3-12.4c0-0.2,0-0.3,0-0.5H482.8z"/>
				<path class="st9" d="M505.5,320.5c1.6-1.7,2.6-3.7,3.1-6h-25c0.4,2.2,1.5,4.3,3.1,6H505.5z"/>
			</g>
			<g class="st10">
				<path class="st11" d="M460.8,272.8c2.9,2.4,6.4,4,10.2,4.4c4.2,0.6,8.3-1.8,11.8-3.9c0.4-0.2,0.5-0.7,0.2-1.1
					c-0.2-0.3-0.7-0.5-1-0.3c-3,1.8-6.6,4-10.2,3.7c-3.6-0.3-7.1-1.7-9.9-4C461.1,271,460,272.1,460.8,272.8L460.8,272.8z"/>
				<path class="st11" d="M507.8,272.8c2.9,2.5,6.4,4,10.2,4.4c4.2,0.6,8.3-1.8,11.8-3.9c0.4-0.2,0.5-0.7,0.2-1.1
					c-0.2-0.3-0.7-0.5-1-0.3c-3,1.8-6.6,4-10.2,3.7c-3.6-0.3-7.1-1.7-9.9-4C508.2,271,507.1,272.1,507.8,272.8L507.8,272.8z"/>
			</g>
			<path class="st12" d="M456.4,263c0,0,17.3-8.1,30.3,0"/>
			<path class="st12" d="M502.5,263c0,0,17.3-8.1,30.3,0"/>
			<path class="st6" d="M529.6,344.6"/>
			<path class="st1" d="M472.8,604.4c0,0-6.8,11-0.8,21c-12.2,7.4-14,17.1-14.2,21.5c-0.1,2.3-0.3,4.6-0.6,6.9l-0.4,2.9
				c-0.4,2.7-2.7,4.7-5.4,4.7c-1,0-1.9-0.3-2.3-1.2c-1.1-2.7,2.1-31.6,6.8-38.2c0.6-0.8,0.5-1.9-0.2-2.6c-0.7-0.7-1.7-1.3-2.7-1.6
				c0,0-5.4-14.2,13.4-13.4L472.8,604.4z"/>
			<path class="st13" d="M725.2,300.5c0,0,3.2,1-1.9,6.2c-5.1,5.2-14.3,12.6-19.8,7.6c-5.6-5-3.2-11.9-0.9-14.3s5.3-5.8,6.6-4.8
				c1.3,1,0.3,2.7,0.3,2.7c2.8-2.9,2.7-2.6,5.6-5.4c2.2-2.1,4.8-3.1,5.8-2.5c0.6,0.4,0.5,1.6,0.5,1.6s5.1-4.2,6.6-2.4
				c1.5,1.9-0.8,4.4-0.8,4.4s1.4,0.2,1.5,1.5C728.7,296.7,725.2,300.5,725.2,300.5z"/>
			<path class="st13" d="M733,458.3c0,0,1.7,2.9-5.6,3.3c-7.3,0.4-19-0.1-19.9-7.6c-0.8-7.4,5.6-11,8.8-11.3
				c3.3-0.3,7.9-0.8,8.1,0.8s-1.6,2.2-1.6,2.2c4-0.3,3.7-0.1,7.8-0.2c3-0.1,5.7,0.9,6,2c0.2,0.7-0.7,1.6-0.7,1.6s6.7,0.3,6.5,2.7
				c-0.2,2.4-3.5,2.8-3.5,2.8s0.9,1.1,0.1,2.1C738.2,457.8,733,458.3,733,458.3z"/>
			<path class="st13" d="M633.6,551c0,0,0.4,3.3-6.5,0.7c-6.8-2.6-17.3-7.9-15-15.1c2.3-7.1,9.6-7.7,12.7-6.7
				c3.1,1.1,7.5,2.5,7.1,4.1c-0.4,1.6-2.3,1.3-2.3,1.3c3.7,1.4,3.5,1.4,7.2,3c2.8,1.2,4.8,3.1,4.6,4.3c-0.1,0.7-1.3,1.2-1.3,1.2
				s6,3,4.8,5.1c-1.1,2.1-4.4,1.1-4.4,1.1s0.3,1.4-0.8,1.9C638.5,552.7,633.6,551,633.6,551z"/>
			<path class="st13" d="M264.3,299.3c0,0-3.2,1,1.9,6.2c5.1,5.2,14.3,12.6,19.8,7.6c5.6-5,3.2-11.9,0.9-14.3
				c-2.2-2.4-5.3-5.8-6.6-4.8c-1.3,1-0.3,2.7-0.3,2.7c-2.8-2.9-2.7-2.6-5.6-5.4c-2.2-2.1-4.8-3.1-5.8-2.5c-0.6,0.4-0.5,1.6-0.5,1.6
				s-5.1-4.2-6.6-2.4s0.8,4.4,0.8,4.4s-1.4,0.2-1.5,1.5C260.8,295.5,264.3,299.3,264.3,299.3z"/>
			<path class="st13" d="M257.1,457.1c0,0-1.7,2.9,5.6,3.3c7.3,0.4,19-0.1,19.9-7.6c0.8-7.4-5.6-11-8.8-11.3
				c-3.3-0.3-7.9-0.8-8.1,0.8s1.6,2.2,1.6,2.2c-4-0.3-3.7-0.1-7.8-0.2c-3-0.1-5.7,0.9-6,2c-0.2,0.7,0.7,1.6,0.7,1.6
				s-6.7,0.3-6.5,2.7c0.2,2.4,3.5,2.8,3.5,2.8s-0.9,1.1-0.1,2.1C251.9,456.6,257.1,457.1,257.1,457.1z"/>
			<path class="st13" d="M358.9,548.6c0,0-0.4,3.3,6.5,0.7c6.8-2.6,17.3-7.9,15-15.1c-2.3-7.1-9.6-7.7-12.7-6.7
				c-3.1,1.1-7.5,2.5-7.1,4.1s2.3,1.3,2.3,1.3c-3.7,1.4-3.5,1.4-7.2,3c-2.8,1.2-4.8,3.1-4.6,4.3c0.1,0.7,1.3,1.2,1.3,1.2
				s-6,3-4.8,5.1c1.1,2.1,4.4,1.1,4.4,1.1s-0.3,1.4,0.8,1.9C354,550.2,358.9,548.6,358.9,548.6z"/>
		</g>
	</g>
	<g id="Calque_2_1_">
		<g id="Calque_3">
			<path class="st14" d="M719,267.1c-1.9,2.1-3.1,4.6-3.5,7.4l8.4,1l4.1-3.4l-3.1-4.3L719,267.1z"/>
			<path class="st15" d="M745.7,270.2l-6-0.7l-4.1,3.4l3.1,4.3l8.5,1C747.6,275.4,747.1,272.7,745.7,270.2z"/>
			<polygon class="st16" points="725,267.8 724,275.4 738.8,277.2 739.8,269.5 733.1,262.9 			"/>
			<polygon class="st17" points="727.8,259.8 725,267.8 739.8,269.5 739,261.1 734.1,255.2 			"/>
			<path class="st15" d="M742.3,189.8l-8.9,71c20.3,2.5,38.8-11.3,41.5-30.8c2.6-19.6-11.6-37.5-31.9-40.1
				C742.7,189.9,742.5,189.9,742.3,189.8z"/>
			<path class="st14" d="M769.2,229c2.5-19.6-9.6-37.1-26.9-39.2c-20.3-2.5-38.8,11.3-41.5,30.8c-2.6,19.6,11.6,37.5,31.9,40.1
				c0.2,0,0.4,0.1,0.6,0.1C750.6,262.9,766.7,248.6,769.2,229z"/>
			<path class="st18" d="M734,255.4l3.2-25.7l-8.3-1l-2.2,17.7C726.2,250.9,729.5,254.9,734,255.4C734,255.4,734,255.4,734,255.4z"
				/>
			<path class="st17" d="M734,255.4c4.6,0.5,8.7-2.6,9.3-7c0,0,0,0,0,0l2.2-17.7l-11.2-1.3l-2.2,17.7
				C731.6,251.5,732.5,255.3,734,255.4z"/>
			<path class="st18" d="M706.5,221.5l26.6,3.1l1-8l-18.3-2.1C711.3,213.9,707.1,217.1,706.5,221.5
				C706.5,221.5,706.5,221.5,706.5,221.5z"/>
			<path class="st17" d="M706.5,221.5c-0.6,4.4,2.7,8.4,7.2,9c0,0,0,0,0,0l18.3,2.1l1.3-10.8l-18.3-2.1
				C710.6,219.1,706.7,220,706.5,221.5z"/>
			<path class="st18" d="M741.7,194.9l-3.2,25.7l8.3,1l2.2-17.7C749.5,199.5,746.3,195.4,741.7,194.9
				C741.7,194.9,741.7,194.9,741.7,194.9z"/>
			<path class="st17" d="M741.7,194.9c-4.6-0.5-8.7,2.6-9.3,7c0,0,0,0,0,0l-2.2,17.7l11.2,1.3l2.2-17.7
				C744.1,198.8,743.3,195.1,741.7,194.9z"/>
			<path class="st18" d="M769.2,228.9l-26.6-3.1l-1,8l18.3,2.1C764.5,236.4,768.6,233.3,769.2,228.9
				C769.2,228.9,769.2,228.9,769.2,228.9z"/>
			<path class="st17" d="M769.2,228.9c0.6-4.4-2.7-8.4-7.2-9c0,0,0,0,0,0l-18.3-2.1l-1.4,10.8l18.3,2.1
				C765.1,231.2,769,230.4,769.2,228.9z"/>
			<path class="st19" d="M739.3,213.8l-7.4,10.8l4.5,12.2c6.6,0.8,12.5-3.7,13.3-10.1C750.5,220.4,745.8,214.6,739.3,213.8z"/>
			<path class="st16" d="M726,223.9c-0.8,6.3,3.9,12.1,10.4,12.9l2.9-23C732.7,213.1,726.8,217.6,726,223.9z"/>
			<path class="st18" d="M731.9,224.6c0.4-3.2,3.4-5.4,6.7-5c3.3,0.4,5.6,3.3,5.2,6.4c-0.4,3.2-3.4,5.4-6.7,5
				C733.9,230.7,731.5,227.8,731.9,224.6z"/>
			<path class="st18" d="M731.8,273.3c-0.7-0.1-1.4,0.4-1.5,1.1c0,0,0,0,0,0l-0.2,1.7l2.7,0.3l0.2-1.7
				C733.1,274,732.5,273.4,731.8,273.3C731.8,273.3,731.8,273.3,731.8,273.3z"/>
			<path class="st17" d="M748.9,279.7l-35.3-4.2c-0.7-0.1-1.3-0.7-1.2-1.5s0.8-1.2,1.5-1.1l35.3,4.1c0.7,0.1,1.3,0.7,1.2,1.5
				C750.3,279.3,749.6,279.8,748.9,279.7z"/>
			<path class="st20" d="M264.5,275.1c0,1.4-2.6,2.5-5.8,2.5c-3.2,0-5.8-1.1-5.8-2.5"/>
			<path id="SVGCleanerId_0" class="st21" d="M257,192.9c-14.2,0.9-25,12.7-24.1,26.5c0.3,4.7,2,9.3,4.9,13.1
				c6,7.9,9.6,17.3,9.6,27.1v1.4h22.5v-1.2c0-9.7,3-19.1,9.1-26.7c8.7-10.9,6.7-26.5-4.6-35C269.5,194.4,263.3,192.5,257,192.9z"/>
			<path id="SVGCleanerId_0-2" class="st21" d="M257,192.9c-14.2,0.9-25,12.7-24.1,26.5c0.3,4.7,2,9.3,4.9,13.1
				c6,7.9,9.6,17.3,9.6,27.1v1.4h22.5v-1.2c0-9.7,3-19.1,9.1-26.7c8.7-10.9,6.7-26.5-4.6-35C269.5,194.4,263.3,192.5,257,192.9z"/>
			<path class="st22" d="M252,261v-0.7c0-9.8-3.6-19.2-9.6-27.1c-8.4-11.1-5.9-26.7,5.6-34.8c4-2.8,8.7-4.5,13.6-4.8
				c1.1-0.1,2.3-0.1,3.4,0c-13.8-3.4-27.8,4.7-31.4,18c-0.4,1.7-0.7,3.4-0.8,5.1c-0.2,5.6,1.5,11.2,5,15.7c6,7.9,9.6,17.3,9.6,27.1
				v1.4H252z"/>
			<rect x="247.4" y="261" class="st23" width="22.5" height="11"/>
			<polygon class="st24" points="247.4,272 249.9,275.3 267.4,275.3 269.9,272 			"/>
			<path class="st24" d="M270.2,260.5l-23.4,2.9c-0.6,0.1-0.9,0.6-0.8,1.2c0.1,0.5,0.6,0.9,1.2,0.8l0,0l23.4-2.9
				c0.6-0.1,0.9-0.6,0.8-1.2C271.3,260.8,270.8,260.4,270.2,260.5L270.2,260.5z"/>
			<path class="st24" d="M270.2,266.5l-23.4,2.9c-0.6,0.1-0.9,0.6-0.8,1.2c0.1,0.5,0.6,0.9,1.2,0.8l23.4-2.9
				c0.6-0.1,0.9-0.6,0.8-1.2S270.8,266.4,270.2,266.5z"/>
			<polygon class="st25" points="628.3,508.1 694,526.6 704,493.4 638.2,474.9 			"/>
			<path class="st26" d="M671.2,520.2c3.2,0.9,6.5-0.9,7.4-3.9c0,0,0,0,0,0c1.1-3.8,5.3-6,9.2-4.9c0,0,0,0,0,0l-3.7,12.4
				L671.2,520.2z"/>
			<path class="st27" d="M671.9,502.4c-2-2.5-1.9-4.6-0.8-7.6c0,0,0,0,0,0c0,0,0,0,0,0c-5.2,1.9-7,3.2-7.7,8.6
				c-0.1,0.6-0.6,1-1.2,0.9c-0.3,0-0.5-0.1-0.7-0.3c-1.3-1.3-2.6-2.5-2.1-4.5c0,0,0-0.1-0.1-0.1c0,0,0,0-0.1,0
				c-1.9,1.4-4.4,2.8-5.7,7c-2,6.7,5.7,13.9,14.5,10.7c2.7-1,4.8-3,5.7-5.6C674.4,509.8,675.5,506.8,671.9,502.4"/>
			<path class="st28" d="M697.4,541.1l-80.1-22.5c-0.8-0.2-1.2-1-1-1.8l1.2-4.1c0.2-0.8,1.1-1.2,1.8-1l80.1,22.5
				c0.8,0.2,1.2,1,1,1.8l-1.2,4.1C699.1,540.8,698.2,541.3,697.4,541.1"/>
			<path class="st29" d="M696.7,533.3l-74.4-20.9l1.2-4.1c0.2-0.8,1.1-1.2,1.8-1l71.5,20.1c0.8,0.2,1.2,1,1,1.8L696.7,533.3
				L696.7,533.3z"/>
			<path class="st28" d="M634.8,460.5l80.1,22.5c0.8,0.2,1.2,1,1,1.8l-1.2,4.1c-0.2,0.8-1.1,1.2-1.8,1l-80.1-22.5
				c-0.8-0.2-1.2-1-1-1.8l1.2-4.1C633.2,460.7,634.1,460.2,634.8,460.5"/>
			<path class="st29" d="M635.6,468.2l74.4,20.9l-1.2,4.1c-0.2,0.8-1.1,1.2-1.8,1l-71.5-20.1c-0.8-0.2-1.2-1-1-1.8L635.6,468.2
				L635.6,468.2z"/>
			<polygon class="st29" points="694.9,477.4 654.9,466.1 663.5,458 692.1,466.1 			"/>
			<polygon class="st28" points="689.2,465.3 666.4,458.8 675.8,448 687.3,451.2 			"/>
			<polygon class="st28" points="684,523.8 694,526.6 704,493.4 694,490.6 			"/>
			<polygon class="st29" points="691.1,500.3 701.1,503.1 701.9,500.3 691.9,497.5 			"/>
			<polygon class="st29" points="688.6,508.6 698.6,511.4 699.4,508.6 689.4,505.8 			"/>
			<polygon class="st29" points="686.1,516.9 696.1,519.7 697,516.9 686.9,514.1 			"/>
			<polygon class="st28" points="628.3,508.1 638.3,510.9 648.3,477.7 638.2,474.9 			"/>
			<polygon class="st29" points="635.3,484.6 645.3,487.4 646.2,484.6 636.2,481.8 			"/>
			<polygon class="st29" points="632.8,492.9 642.8,495.7 643.7,492.9 633.7,490.1 			"/>
			<polygon class="st29" points="630.3,501.2 640.3,504 641.2,501.2 631.2,498.4 			"/>
			<path class="st26" d="M651.1,514.5c-3.2-0.9-5-4.1-4.1-7.1c0,0,0,0,0,0c1.2-3.8-1.1-7.8-5.1-8.9c0,0,0,0,0,0l-3.7,12.4
				L651.1,514.5z"/>
			<path class="st30" d="M666.8,509.4c-1.1-1.3-1-2.4-0.4-4l0,0c-2.8,1-3.7,1.7-4.1,4.5c0,0.3-0.3,0.5-0.6,0.5
				c-0.1,0-0.3-0.1-0.4-0.2c-0.7-0.7-1.4-1.3-1.1-2.4c0,0,0,0,0,0c0,0,0,0,0,0c-1,0.8-2.3,1.5-3,3.7c-1.1,3.5,3,7.3,7.7,5.7
				c1.4-0.5,2.5-1.6,3-3C668.2,513.4,668.8,511.7,666.8,509.4"/>
			<polygon class="st31" points="663.8,408.1 802.8,390.3 806.2,414.9 667.2,432.7 			"/>
			<polygon class="st32" points="802.8,390.3 807.4,389.7 810.8,414.3 806.2,414.9 			"/>
			<polygon class="st33" points="669.4,407.4 673.3,406.9 675.2,420.8 671.3,421.3 			"/>
			<polygon class="st33" points="679.7,406.1 683.7,405.6 685,415.7 681.1,416.2 			"/>
			<polygon class="st33" points="690.1,404.8 694,404.3 695.9,418.2 692,418.7 			"/>
			<polygon class="st33" points="700.4,403.4 704.3,402.9 705.7,413.1 701.8,413.6 			"/>
			<polygon class="st33" points="710.7,402.1 714.6,401.6 716.5,415.5 712.6,416 			"/>
			<polygon class="st33" points="721,400.8 725,400.3 726.4,410.4 722.4,410.9 			"/>
			<polygon class="st33" points="731.4,399.5 735.3,399 737.2,412.9 733.3,413.4 			"/>
			<polygon class="st33" points="741.7,398.1 745.6,397.6 747,407.8 743.1,408.3 			"/>
			<polygon class="st33" points="752,396.8 755.9,396.3 757.9,410.2 753.9,410.7 			"/>
			<polygon class="st33" points="762.4,395.5 766.3,395 767.7,405.1 763.8,405.6 			"/>
			<polygon class="st33" points="772.7,394.2 776.6,393.7 778.5,407.6 774.6,408.1 			"/>
			<polygon class="st33" points="793.3,391.5 797.2,391 799.2,404.9 795.2,405.4 			"/>
			<polygon class="st33" points="783,392.8 786.9,392.3 788.3,402.5 784.4,403 			"/>
			<polygon class="st34" points="213.3,428.3 278.7,415 279.8,420 214.4,433.3 			"/>
			<path class="st35" d="M276.1,415.5l-60.2,12.2l-8.2-37.9c-3.5-16,7.1-31.8,23.7-35.2l0,0c16.6-3.4,32.9,6.9,36.4,22.9
				c0,0,0,0,0,0L276.1,415.5z"/>
			<path class="st36" d="M219,423.1l-7.4-34.1c-3.1-13.9,6-27.7,20.4-30.7s28.6,5.8,31.8,19.7c0,0.1,0.1,0.3,0.1,0.4l7.4,34.1
				L219,423.1z"/>
			<path class="st37" d="M253.8,364.7c-4-3.2-9-5.1-14.2-5.4l-19.7,61.6l0.2,0.8l16.6-3.4L253.8,364.7z"/>
			<path class="st38" d="M264.5,375.6c-2-6.3-6.3-11.6-12.1-15l-0.3-0.2l-0.1,0c-0.7-0.4-1.5-0.8-2.2-1.1l-0.2-0.1
				c-0.7-0.3-1.5-0.6-2.2-0.9l-0.3-0.1c-0.7-0.2-1.4-0.5-2.1-0.7l-0.5-0.1c-0.7-0.2-1.3-0.3-2-0.4c-0.2,0-0.5-0.1-0.7-0.1
				c-0.6-0.1-1.2-0.2-1.9-0.2c-0.3,0-0.6,0-1,0c-0.6,0-1.1-0.1-1.7,0c-0.5,0-0.9,0-1.4,0.1c-0.5,0-0.8,0-1.3,0.1
				c-0.9,0.1-1.8,0.2-2.7,0.4c-0.9,0.2-1.8,0.4-2.6,0.7c-0.4,0.1-0.8,0.3-1.2,0.4c-0.4,0.1-0.9,0.3-1.3,0.5c-0.5,0.2-1,0.5-1.5,0.7
				c-0.3,0.1-0.6,0.3-0.8,0.4c-0.6,0.3-1.1,0.6-1.6,0.9c-0.2,0.1-0.4,0.2-0.6,0.3c-0.6,0.4-1.1,0.8-1.7,1.2l-0.4,0.3
				c-0.6,0.5-1.1,0.9-1.7,1.4l-0.2,0.2c-0.6,0.5-1.1,1.1-1.7,1.7l-0.1,0.1c-0.6,0.6-1.1,1.2-1.5,1.9l0,0.1l-0.3,0.4
				c-3.8,5.4-5.5,11.9-4.8,18.4l-0.1,0l0.6,2.5l3.8,17.7l3.8,17.7l26.1-5.3l28.8-5.8l-3.8-17.7l-0.6-2.5l-3.3-15.2l-0.6-2.5
				L264.5,375.6z M269.7,411.5l-23.5,4.8l-3.3-15.2l23.5-4.8L269.7,411.5z M265.9,393.9l-22.9,4.7l-2,6.2l2.6,12.1l-7,1.4l-16.6,3.4
				l-0.2-0.8l-3.1-14.4l8.3-1.7l0.9-2.8l-9.7,2l-3.3-15.2l18.4-3.8l0.9-2.8l-19.8,4c-0.6-5.4,0.8-10.9,3.8-15.5l16.3,10.3l0.8-2.6
				l-15.6-9.9c1.3-1.6,2.9-3.1,4.5-4.3l0.3-0.2c0.5-0.3,0.9-0.6,1.4-0.9l0.6-0.4c0.4-0.2,0.9-0.5,1.3-0.7c0.3-0.1,0.6-0.3,0.9-0.4
				c0.4-0.2,0.8-0.4,1.2-0.5c0.4-0.2,0.8-0.3,1.2-0.5c0.3-0.1,0.6-0.2,0.9-0.3c0.8-0.2,1.5-0.4,2.3-0.6c0.8-0.2,1.6-0.3,2.4-0.4
				c0.3,0,0.7,0,1-0.1c0.4,0,0.9-0.1,1.3-0.1s0.8,0,1.3,0c0.3,0,0.7,0,1,0h0.1l0,0c0.2,0,0.3,0,0.5,0.1c0.3,0,0.6,0,0.8,0.1l0.3,0
				c0.6,0.1,1.2,0.2,1.9,0.3l0.2,0l0,0c1.7,0.4,3.3,0.9,4.8,1.6l0.1,0c0.5,0.2,0.9,0.4,1.4,0.7l0,0c0.8,0.4,1.6,0.9,2.4,1.4l0,0
				l0.1,0c0.5,0.4,1.1,0.7,1.6,1.1h0l0.1,0.1l0,0c3.8,3,6.6,7,8.1,11.5l-12.6,2.6l-0.9,2.8l14.2-2.9L265.9,393.9z"/>
			<path class="st37" d="M243.1,359.8c-0.6-0.1-1.2-0.2-1.9-0.3l0.4,0.1C242.2,359.6,242.7,359.7,243.1,359.8z"/>
			<path class="st37" d="M248.1,361.4c-1.5-0.7-3.2-1.2-4.8-1.6l0.4,0.1C245.2,360.3,246.7,360.8,248.1,361.4z"/>
			<path class="st37" d="M252,363.5c0.5,0.4,1.1,0.7,1.6,1.1C253.1,364.2,252.6,363.8,252,363.5z"/>
			<path class="st39" d="M239.1,383.5l9.3-1.9l0.9-2.8l-8.9,1.8l11.6-17.2c-0.7-0.5-1.5-0.9-2.3-1.3l-12.6,18.6l-3.6-2.3l-0.8,2.6
				l1.4,0.9l-1.8,0.4l-0.9,2.8l5.1-1.1l3.3,15.2L226,402l-0.9,2.8l15.3-3.1l0.7,3l2-6.2l-0.6,0.1L239.1,383.5z"/>
			<path class="st37" d="M239.6,359.3L239.6,359.3l0.5,0C239.9,359.3,239.8,359.3,239.6,359.3z"/>
			<path class="st37" d="M248.3,361.4c0.5,0.2,0.9,0.4,1.4,0.7C249.2,361.9,248.7,361.6,248.3,361.4z"/>
			<path class="st37" d="M253.8,364.7l-0.1-0.1L253.8,364.7L253.8,364.7z"/>
			<path class="st40" d="M318.9,465.9l45.3-9.1c2.1-0.4,4.1,0.9,4.6,2.9l10.2,47.4c0.4,2-0.9,4-3,4.4l-45.3,9.1
				c-2.1,0.4-4.1-0.9-4.6-2.9l-10.2-47.4C315.5,468.3,316.8,466.3,318.9,465.9z"/>
			<path class="st41" d="M364.2,456.9l-45.3,9.1c-2.1,0.4-3.4,2.4-3,4.4l0.5,2.3c-0.4-2,0.9-4,3-4.4l45.3-9.1
				c2.1-0.4,4.1,0.9,4.6,2.9l-0.5-2.3C368.3,457.7,366.3,456.5,364.2,456.9z"/>
			<path class="st42" d="M325,471.4l35.9-7.2c1-0.2,2.1,0.4,2.3,1.4l8.2,38.3c0.2,1-0.5,2-1.5,2.2l-35.9,7.2c-1,0.2-2.1-0.4-2.3-1.4
				l-8.2-38.3C323.3,472.6,323.9,471.6,325,471.4z"/>
			<path class="st43" d="M328.2,467.8l28.3-5.7c0.5-0.1,1,0.2,1.1,0.7l0.8,3.7c0.3,1.5-0.7,3-2.2,3.3l-24.5,4.9
				c-1.6,0.3-3.1-0.6-3.4-2.1l-0.8-3.7C327.3,468.5,327.6,468,328.2,467.8C328.2,467.9,328.2,467.8,328.2,467.8z"/>
			<path class="st44" d="M337.7,482.6l20.8-4.2c0.5-0.1,0.9-0.5,0.8-1c-0.1-0.5-0.6-0.9-1.1-0.8c0,0-0.1,0-0.1,0l-20.8,4.1
				c-0.5,0.1-0.9,0.5-0.8,1c0.1,0.5,0.6,0.9,1.1,0.8C337.6,482.6,337.7,482.6,337.7,482.6L337.7,482.6z M359.1,481.2l-20.8,4.2
				c-0.5,0.1-0.9,0.5-0.8,1c0.1,0.5,0.6,0.9,1.1,0.8c0,0,0.1,0,0.1,0l20.8-4.1c0.5-0.1,0.9-0.5,0.8-1c-0.1-0.5-0.6-0.9-1.1-0.8
				C359.2,481.2,359.1,481.2,359.1,481.2z M360.1,485.7l-20.8,4.2c-0.5,0.1-0.8,0.7-0.7,1.2c0.1,0.4,0.6,0.7,1.1,0.7l20.8-4.1
				c0.5-0.1,0.8-0.7,0.7-1.2C361,486,360.5,485.7,360.1,485.7z M333.6,481.5l-0.9,0.2c-0.5,0.1-0.8,0.7-0.7,1.2
				c0.1,0.4,0.6,0.7,1.1,0.7l0.9-0.2c0.5-0.1,0.9-0.5,0.8-1c-0.1-0.5-0.6-0.9-1.1-0.8C333.7,481.5,333.6,481.5,333.6,481.5z
				 M334.5,486.1l-0.9,0.2c-0.5,0.1-0.9,0.5-0.8,1c0.1,0.5,0.6,0.9,1.1,0.8c0,0,0.1,0,0.1,0l0.9-0.2c0.5-0.1,0.9-0.5,0.8-1
				s-0.6-0.9-1.1-0.8C334.6,486.1,334.6,486.1,334.5,486.1z M335.5,490.7l-0.9,0.2c-0.5,0.1-0.8,0.7-0.7,1.2
				c0.1,0.4,0.6,0.7,1.1,0.7l0.9-0.2c0.5-0.1,0.8-0.7,0.7-1.2C336.4,490.9,336,490.6,335.5,490.7z M361,490.3l-20.8,4.1
				c-0.5,0.1-0.8,0.7-0.7,1.2c0.1,0.4,0.6,0.7,1.1,0.7l20.8-4.2c0.5-0.1,0.8-0.7,0.7-1.2C362,490.5,361.5,490.3,361,490.3z
				 M362,494.9l-20.8,4.1c-0.5,0.1-0.8,0.7-0.7,1.2c0.1,0.4,0.6,0.7,1.1,0.7l20.8-4.2c0.5-0.1,0.8-0.7,0.7-1.2
				C362.9,495.1,362.5,494.8,362,494.9z M336.5,495.2l-0.9,0.2c-0.5,0.1-0.8,0.7-0.7,1.2c0.1,0.4,0.6,0.7,1.1,0.7l0.9-0.2
				c0.5-0.1,0.8-0.7,0.7-1.2C337.4,495.4,337,495.2,336.5,495.2z M337.5,499.8l-0.9,0.2c-0.5,0.1-0.8,0.7-0.7,1.2
				c0.1,0.4,0.6,0.7,1.1,0.7l0.9-0.2c0.5-0.1,0.8-0.7,0.7-1.2C338.4,500,337.9,499.7,337.5,499.8z"/>
			<path class="st43" d="M334.6,459l12.3-2.5c1.6-0.3,3.1,0.6,3.4,2.1l1,4.6l-17.9,3.6l-0.9-4.5C332.1,460.8,333.1,459.3,334.6,459z
				"/>
			<path class="st45" d="M327.4,469l0.4,1.8l30.2-6l-0.4-1.8c-0.1-0.5-0.6-0.8-1.1-0.7l-28.3,5.7C327.7,468,327.3,468.4,327.4,469
				C327.4,469,327.4,469,327.4,469z"/>
			<path class="st46" d="M333,465l17.9-3.6l0.4,1.8l-17.9,3.6L333,465z"/>
		</g>
	</g>
</g>
</svg>
