<svg xmlns="http://www.w3.org/2000/svg" viewBox="0 0 948.14 869.16"><defs><style>.cls-1{fill:#aaa;}.cls-2{fill:#232323;}.cls-3{fill:#303d89;}.cls-4{fill:#e2e2e2;}.cls-5{fill:#3b3b72;}.cls-6{fill:#bababa;}.cls-7{fill:#ddc3aa;}.cls-8{fill:#5b422d;}.cls-9{fill:#e5e5e5;}.cls-10{fill:#f47171;stroke:#e5e5e5;stroke-miterlimit:10;}.cls-11{opacity:0.75;}.cls-12{fill:#211710;}.cls-13{fill:none;stroke:#5b422d;stroke-linecap:round;stroke-linejoin:round;stroke-width:6px;}.cls-14{fill:#e4ba97;}</style></defs><title>Fichier 1</title><g id="Calque_2" data-name="Calque 2"><g id="Calque_2-2" data-name="Calque 2"><rect class="cls-1" x="463.26" y="690.48" width="61.7" height="29.13" rx="5.99" ry="5.99" transform="translate(-96.1 78.24) rotate(-8.25)"/><rect class="cls-1" x="401.33" y="765.35" width="53.11" height="29.66" rx="5.99" ry="5.99" transform="translate(-61.37 36.95) rotate(-4.61)"/><path class="cls-2" d="M491.71,684.28s16.71,18.27,9,39.21c25.59,9.53,32.5,27.11,34.35,35.3a114.81,114.81,0,0,0,3.62,12.79l1.9,5.39a10.49,10.49,0,0,0,11.92,6.93c1.9-.41,3.42-1.33,3.8-3.16,1.1-5.44-15.3-58.75-26.59-69.46a4,4,0,0,1-.61-4.93,11.67,11.67,0,0,1,4.53-3.88s5-28.65-30.1-20.45Z"/><path id="Pantalon" class="cls-3" d="M486.28,715.75,483,696.85a9.42,9.42,0,0,0-10.58-7.72c-36,5-169.25,22.64-204.41,12.3-29.63-10.89,100.43-35,165.5-46.16a287.28,287.28,0,0,1,95.12-.33c35.56,5.86,88.09,17.75,160.64,41.69,80.82,36.08-187.51,57.83-240.48,61.72a9.42,9.42,0,0,0-8.72,9.6l.39,18.42a9.42,9.42,0,0,0,10.36,9.18c46.75-4.69,240.26-24.73,264.84-37.36C824.35,721,692.46,645.48,692.46,645.48s-76.74-60.75-112.71-66.35S376,578,376,578l-165.52,101c-12.79,4-67.94,52,33.57,65.55,86.41,11.57,202.36-11,235-18A9.42,9.42,0,0,0,486.28,715.75Z"/><g id="tshirt"><path class="cls-4" d="M893,475.75a6.73,6.73,0,0,1-6.77,6.9c-23.5-.09-100.94-.71-112.37-4.74-13.13-4.64-71.39-15.29-147.69-74.41a3.76,3.76,0,0,0-6.07,3.13C625.8,521.8,694.73,596.9,712,614a6.77,6.77,0,0,1,1,8.37l-7.35,11.84a6.76,6.76,0,0,1-10.1,1.6c-23.7-20-109.38-98.4-118.9-197a.64.64,0,0,0-1.27,0c-2.43,71.46-2.43,140.72-2.43,140.72S457.61,604.34,376,578c0,0,0-69.26-2.44-140.72a.63.63,0,0,0-1.26,0c-9.52,98.58-95.2,177-118.9,197a6.76,6.76,0,0,1-10.1-1.6l-7.35-11.84a6.77,6.77,0,0,1,1-8.37c17.24-17.06,86.17-92.16,91.91-207.33a3.76,3.76,0,0,0-6.07-3.13c-76.3,59.12-134.56,69.77-147.69,74.41-11.44,4-89,4.65-112.41,4.74a6.69,6.69,0,0,1-6.74-6.86,99,99,0,0,1,1.82-17.33A6.75,6.75,0,0,1,64,451.59c25.85-1.35,71.39-8.75,98.27-13.42A118.23,118.23,0,0,0,202.91,423c31.09-18.68,90.22-55.58,100.48-71.9a3.73,3.73,0,0,0-3.15-5.68c-28.1-.46-72.53-17-106.83-31.81a258.93,258.93,0,0,1-82-56.32l-49.6-50.49A6.77,6.77,0,0,1,63,196.36l11.81-7.48a6.77,6.77,0,0,1,8.7,1.25c13.41,15.33,60.54,66.35,104.24,79.8s144.39,28.52,174.68,32.9A27,27,0,0,0,379,299.95l17.23-9.14a161,161,0,0,1,27-11.3l1.31-.41q4.45-1.37,9-2.48a159.64,159.64,0,0,1,21-3.71,161.94,161.94,0,0,1,39.9.58l2.61.36a161.49,161.49,0,0,1,19.91,4.07q5.52,1.48,10.93,3.36a162.44,162.44,0,0,1,22.7,9.9l19.39,10.28a27,27,0,0,0,16.54,2.88c30.29-4.38,131.08-19.49,174.68-32.9s90.82-64.47,104.24-79.8a6.77,6.77,0,0,1,8.7-1.25l11.81,7.48a6.77,6.77,0,0,1,1.21,10.45l-49.6,50.49a258.93,258.93,0,0,1-82,56.32c-34.3,14.8-78.73,31.36-106.83,31.81a3.73,3.73,0,0,0-3.15,5.68c10.26,16.32,69.39,53.22,100.48,71.9a118,118,0,0,0,40.67,15.16c26.88,4.67,72.42,12.07,98.27,13.42a6.72,6.72,0,0,1,6.21,5.3A97.28,97.28,0,0,1,893,475.75Z"/><path class="cls-5" d="M468.86,553.65l-11.54-22.17a15.49,15.49,0,0,1-1.64-9l17-139.52h6.14l9.58,140.16a15.49,15.49,0,0,1-1.91,8.58l-12.32,22.19A3,3,0,0,1,468.86,553.65Z"/><path class="cls-5" d="M508.44,337.27c-2.44,3.09-4.78,6.24-7.15,9.36s-4.66,6.31-7,9.47-4.58,6.35-6.83,9.55l-3.38,4.8a11.28,11.28,0,0,0-2.53,5.3l-.15,1.23H470.92l.08-1.2a5.5,5.5,0,0,0-.74-3.11c-.51-.88-1.18-1.66-1.76-2.49l-3.62-4.93c-2.42-3.28-4.89-6.53-7.35-9.79s-5-6.48-7.52-9.68-5.1-6.4-7.77-9.54a6.67,6.67,0,0,1,10.17-8.64,6.85,6.85,0,0,1,1.09,1.8c1.55,3.81,3.21,7.55,4.87,11.29s3.38,7.45,5.11,11.15,3.49,7.38,5.28,11l2.69,5.49c.47.9.86,1.86,1.4,2.71a5.5,5.5,0,0,0,2.42,2.09l-2.14-1.2h6.3l-2.16,1.23a11.28,11.28,0,0,0,3.39-4.79l2.54-5.29c1.7-3.52,3.35-7.08,5-10.62s3.28-7.12,4.88-10.7,3.18-7.17,4.69-10.81a6.23,6.23,0,1,1,11.51,4.78A6.45,6.45,0,0,1,508.44,337.27Z"/><path class="cls-6" d="M455.42,330.25l-31,27.83a1.86,1.86,0,0,1-3.11-1.43l1.87-77.14,1.31-.41q4.45-1.37,9-2.48l22.41,51.49A1.88,1.88,0,0,1,455.42,330.25Z"/><path class="cls-6" d="M529.62,356.65a1.86,1.86,0,0,1-3.11,1.43l-31-27.83a1.88,1.88,0,0,1-.47-2.14l21.84-50.19q5.52,1.48,10.93,3.36Z"/></g><path class="cls-7" d="M522.08,279.74s-13.32-16.15-8.82-36.15c2.44-10.88-18.06-2.53-37.29,1-19.22-3.49-39.73-11.84-37.29-1,4.5,20-8.82,34.15-8.82,34.15l46,102.82v.18l.07.16,0-.09,0,.09.07-.16v-.18l21.79-47.77Z"/><circle class="cls-5" cx="475.97" cy="378.54" r="8.01"/><ellipse class="cls-7" cx="561.23" cy="138.27" rx="17.22" ry="28.95"/><ellipse class="cls-7" cx="391.05" cy="138.27" rx="17.22" ry="28.95"/><path id="cheveu_barbe" data-name="cheveu barbe" class="cls-8" d="M564.64,62c-7.24-26.38-25.4-53.47-68.5-59.91C415.05-10,391,34.36,387.2,42.91a4,4,0,0,0-.17,2.77l3.21,10.61a4,4,0,0,1-1.54,4.43l-5.86,4.08a4,4,0,0,0-1.71,3.2c-.28,14.58-1.14,103,17.68,128.79l0,0c13,33.65,42.53,57.17,76.93,57.17,38.92,0,71.65-30.09,81.15-70.91h0S580.64,109.15,564.64,62Z"/><path id="visage" class="cls-7" d="M557.6,82.68a2,2,0,0,0-3.19-1.18c-4.65,3.61-15.8,9.86-33.34,5.12a54.86,54.86,0,0,1-22.63-12.82C455.56,34.45,401.06,51,392.14,79.26c-4.8,15.2-4.65,33.53-3.38,47.73h0c.35,3.92.78,7.53,1.21,10.66a83.94,83.94,0,0,0,12.62,34.46A74.36,74.36,0,0,0,428,196.29a2.63,2.63,0,0,0,3.35-.58c9.11-11,25.24-18.31,43.63-18.31l.68,0,.68,0c18.39,0,34.51,7.31,43.63,18.31a2.63,2.63,0,0,0,3.35.58,74.36,74.36,0,0,0,25.37-24.18,83.94,83.94,0,0,0,12.62-34.46c.29-2.11.58-4.44.85-6.93a49.78,49.78,0,0,0,.21-7.56A295.37,295.37,0,0,0,557.6,82.68Z"/><g id="BOUCHE"><path class="cls-9" d="M450.56,199.27c0,.3,0,.6,0,.91,0,13.12,11.43,23.75,25.54,23.75s25.54-10.64,25.54-23.75c0-.3,0-.61,0-.91Z"/><path class="cls-10" d="M494.15,216.11A23.46,23.46,0,0,0,500,204.63H452.14A23.46,23.46,0,0,0,458,216.11Z"/></g><g class="cls-11"><path class="cls-12" d="M408.5,124.7A36.18,36.18,0,0,0,428,133.1c8.08,1.06,15.88-3.36,22.6-7.4a1.5,1.5,0,0,0-1.51-2.59c-5.73,3.45-12.69,7.67-19.6,7.18a32.72,32.72,0,0,1-18.9-7.71c-1.44-1.27-3.57.84-2.12,2.12Z"/><path class="cls-12" d="M498.56,124.7a36.18,36.18,0,0,0,19.53,8.4c8.08,1.06,15.88-3.36,22.6-7.4a1.5,1.5,0,0,0-1.51-2.59c-5.73,3.45-12.69,7.67-19.6,7.18a32.72,32.72,0,0,1-18.9-7.71c-1.44-1.27-3.57.84-2.12,2.12Z"/></g><path class="cls-13" d="M400.11,105.95s33.05-15.49,58,0"/><path class="cls-13" d="M488.31,105.95s33.05-15.49,58,0"/><path class="cls-7" d="M540.22,262.21"/><path class="cls-2" d="M431.39,759.9s-13,21.08-1.47,40.2c-23.35,14.15-26.84,32.72-27.13,41.12a114.81,114.81,0,0,1-1.16,13.24l-.85,5.65a10.49,10.49,0,0,1-10.41,9c-1.94,0-3.61-.66-4.32-2.39-2.1-5.14,4-60.58,13.1-73.21a4,4,0,0,0-.33-5,11.67,11.67,0,0,0-5.17-3s-10.29-27.21,25.74-25.74Z"/><path class="cls-14" d="M914.93,177.74s6.11,2-3.73,11.89-27.31,24.12-38,14.59-6.06-22.77-1.8-27.41,10.24-11.19,12.66-9.23.55,5.12.55,5.12c5.36-5.47,5.14-5,10.81-10.31,4.25-4,9.26-6,11.06-4.79,1.2.78,1,3.12,1,3.12s9.86-8.13,12.67-4.53-1.45,8.51-1.45,8.51,2.65.44,2.8,2.89C921.69,170.49,914.93,177.74,914.93,177.74Z"/><path class="cls-14" d="M929.86,480s3.24,5.54-10.71,6.36-36.44-.25-38.06-14.5,10.68-21,16.95-21.61,15.09-1.5,15.59,1.57-3,4.18-3,4.18c7.64-.5,7.14-.26,14.93-.46,5.84-.16,10.89,1.72,11.44,3.81.38,1.38-1.31,3-1.31,3s12.77.52,12.47,5.08-6.75,5.37-6.75,5.37,1.68,2.09.16,4C939.73,479.12,929.86,480,929.86,480Z"/><path class="cls-14" d="M739.48,657.47s.68,6.38-12.38,1.41S694,643.69,698.35,630s18.36-14.77,24.33-12.75,14.38,4.83,13.57,7.84-4.46,2.58-4.46,2.58c7.17,2.68,6.61,2.69,13.81,5.71,5.39,2.26,9.22,6,8.86,8.17-.22,1.42-2.43,2.21-2.43,2.21s11.43,5.72,9.28,9.75-8.36,2.13-8.36,2.13.67,2.6-1.5,3.73C748.85,660.72,739.48,657.47,739.48,657.47Z"/><path class="cls-14" d="M32.21,175.39s-6.11,2,3.73,11.89,27.31,24.12,38,14.59,6.06-22.77,1.8-27.41-10.24-11.19-12.66-9.23-.55,5.12-.55,5.12c-5.36-5.47-5.14-5-10.81-10.31-4.25-4-9.26-6-11.06-4.79-1.2.78-1,3.12-1,3.12s-9.86-8.13-12.67-4.53,1.45,8.51,1.45,8.51-2.65.44-2.8,2.89C25.45,168.14,32.21,175.39,32.21,175.39Z"/><path class="cls-14" d="M18.29,477.66S15,483.2,29,484s36.44-.25,38.06-14.5-10.68-21-16.95-21.61S35,446.4,34.52,449.48s3,4.18,3,4.18c-7.64-.5-7.14-.26-14.93-.46-5.84-.16-10.89,1.72-11.44,3.81-.38,1.38,1.31,3,1.31,3S-.3,460.55,0,465.1s6.75,5.37,6.75,5.37-1.68,2.09-.16,4C8.41,476.77,18.29,477.66,18.29,477.66Z"/><path class="cls-14" d="M213.37,652.86s-.68,6.38,12.38,1.41,33.12-15.19,28.75-28.85-18.36-14.77-24.33-12.75-14.38,4.83-13.57,7.84,4.46,2.58,4.46,2.58c-7.17,2.68-6.61,2.69-13.81,5.71-5.39,2.26-9.22,6-8.86,8.17.22,1.42,2.43,2.21,2.43,2.21s-11.43,5.72-9.28,9.75,8.36,2.13,8.36,2.13-.67,2.6,1.5,3.73C204,656.1,213.37,652.86,213.37,652.86Z"/></g></g></svg>