<svg xmlns="http://www.w3.org/2000/svg" viewBox="5444.223 808.658 67.55 60.214"><defs><style>.a{fill:#00c1cb;}</style></defs><g transform="translate(5444.223 775.424)"><g transform="translate(0 33.234)"><path class="a" d="M217.773,42.059,176.4,33.3a3.262,3.262,0,0,0-3.856,2.509l-.786,5.051,47.735,10.1.786-5.051A3.262,3.262,0,0,0,217.773,42.059Z" transform="translate(-152.802 -33.234)"/><path class="a" d="M47.573,171.154a3.294,3.294,0,0,0-4.041-2.286l-7.854,2.18L17.163,167.13l-2.036,9.621L2.4,180.282a3.293,3.293,0,0,0-2.286,4.041l7.17,25.837a3.293,3.293,0,0,0,4.041,2.286l41.127-11.413a3.293,3.293,0,0,0,2.286-4.041l-1.231-4.435,4.613.975a3.261,3.261,0,0,0,3.856-2.509l2.918-13.79-16.615-3.516Zm4.75,13.131,1.017-4.807a1.343,1.343,0,0,1,1.586-1.032l4.807,1.018a1.342,1.342,0,0,1,1.033,1.586l-1.017,4.807a1.342,1.342,0,0,1-1.586,1.032l-4.807-1.017A1.343,1.343,0,0,1,52.323,184.286ZM3.12,182.86,14.5,179.7l26.854-7.452,2.89-.8a.6.6,0,0,1,.157-.021.621.621,0,0,1,.59.443l.339,1.222,1.063,3.831L4.1,188.66l-1.4-5.052A.616.616,0,0,1,3.12,182.86Zm49.044,14.845a.617.617,0,0,1-.422.747L10.615,209.866a.6.6,0,0,1-.157.022.621.621,0,0,1-.59-.444l-4.182-15.07,42.295-11.738,2.58,9.295Z" transform="translate(0 -152.351)"/><path class="a" d="M96.488,445.582a1.343,1.343,0,0,0-1.648-.932l-4.8,1.333a1.342,1.342,0,0,0-.931,1.648l1.333,4.8a1.342,1.342,0,0,0,1.648.931l4.8-1.333a1.342,1.342,0,0,0,.932-1.648Z" transform="translate(-79.227 -399.196)"/></g></g></svg>