<svg xmlns="http://www.w3.org/2000/svg" xmlns:xlink="http://www.w3.org/1999/xlink" viewBox="5204.951 3300.203 104.506 96.395"><defs><style>.a{fill:#00c1cb;}.b{filter:url(#c);}.c{filter:url(#a);}</style><filter id="a" x="5204.951" y="3300.203" width="104.506" height="58.55" filterUnits="userSpaceOnUse"><feOffset dy="3" input="SourceAlpha"/><feGaussianBlur stdDeviation="3" result="b"/><feFlood flood-opacity="0.161"/><feComposite operator="in" in2="b"/><feComposite in="SourceGraphic"/></filter><filter id="c" x="5215.765" y="3319.126" width="82.876" height="77.471" filterUnits="userSpaceOnUse"><feOffset dy="3" input="SourceAlpha"/><feGaussianBlur stdDeviation="3" result="d"/><feFlood flood-opacity="0.161"/><feComposite operator="in" in2="d"/><feComposite in="SourceGraphic"/></filter></defs><g transform="translate(5213.951 3283.399)"><g transform="translate(0 22.804)"><g transform="translate(0 0)"><g class="c" transform="matrix(1, 0, 0, 1, -5213.95, -3306.2)"><path class="a" d="M85.579,58.606,45.031,23.465a2.7,2.7,0,0,0-3.541,0L27.033,35.986V30.915a5.406,5.406,0,0,0-10.813,0V45.355L.93,58.606a2.706,2.706,0,0,0,3.547,4.087L43.252,29.087l38.77,33.606a2.709,2.709,0,0,0,3.557-4.087Z" transform="translate(5213.95 3283.4)"/></g><g class="b" transform="matrix(1, 0, 0, 1, -5213.95, -3306.2)"><path class="a" d="M96.665,130.442a5.374,5.374,0,0,0-6.85,0L62.783,152.6a5.4,5.4,0,0,0-1.979,4.185v26.486a5.408,5.408,0,0,0,5.406,5.406H82.43V161.648h21.626V188.68h16.219a5.412,5.412,0,0,0,5.406-5.406V156.787a5.375,5.375,0,0,0-1.984-4.179Z" transform="translate(5163.96 3195.92)"/></g></g></g></g></svg>