<svg xmlns="http://www.w3.org/2000/svg" viewBox="5156.118 806.671 44.734 63.2"><defs><style>.a{fill:#00c1cb;}</style></defs><g transform="translate(5089.813 806.671)"><g transform="translate(66.305)"><path class="a" d="M108.569,5.959h2.471V0H66.305V5.959h2.471V7.505c0,9.708,3.322,18.611,8.794,23.894-5.472,5.283-8.794,14.186-8.794,23.894v1.948H66.305V63.2H111.04V57.241h-2.471V55.293c0-9.708-3.323-18.611-8.794-23.894,5.471-5.282,8.794-14.184,8.794-23.894ZM95.607,29.844,93.555,31.4l2.052,1.554c5.12,3.883,8.557,11.745,9.011,20.389H72.728c.454-8.644,3.889-16.506,9.01-20.389L83.789,31.4l-2.051-1.554c-5.121-3.883-8.557-11.744-9.01-20.389h31.889C104.164,18.1,100.727,25.961,95.607,29.844ZM76.839,12.556h23.666c-.342,6.564-2.952,12.534-6.843,15.482a5.7,5.7,0,0,0-1.556,1.179c-1.841,2.628-1.939,12.236-1.942,12.66a7.24,7.24,0,0,1,4.164,1.991c4.992,4.561,6.44,5.1,6.615,8.41H77.537c.174-3.31,3.014-5.679,6.614-8.41a9.309,9.309,0,0,1,4.115-1.92c-.044-.075-.069-.126-.069-.126,0-9.05-2.959-12.93-2.959-12.93l-2.1-1.179C79.245,24.761,77.182,19.119,76.839,12.556Z" transform="translate(-66.305)"/></g></g></svg>