<svg xmlns="http://www.w3.org/2000/svg" viewBox="0 0 1088.47 655.66"><defs><style>.cls-1{fill:#c0f2f9;}.cls-2{fill:#82e5f3;}.cls-3{fill:#fff;}.cls-4{fill:#43d8ed;}.cls-5{fill:#49bccd;}.cls-6{fill:#d4f8f5;}.cls-7{fill:#2f4859;}.cls-8{fill:#fcd462;}.cls-9{fill:#f6c358;}.cls-10{fill:#64798a;}.cls-11{fill:#3a556a;}.cls-12{fill:#212f3e;}.cls-13{fill:#6b5b4b;}.cls-14{fill:#f0c419;}.cls-15{fill:#bcb3aa;}.cls-16{fill:#f7eee4;}.cls-17{fill:#e57e25;}.cls-18{fill:#77b8e8;}.cls-19{fill:#009bde;}.cls-20{fill:#333e48;}.cls-21{fill:#492510;}.cls-22{fill:#a45d31;}.cls-23{fill:#7fabda;}.cls-24{fill:#a1c8ec;}.cls-25{fill:#553323;}.cls-26{fill:#684233;}.cls-27{fill:#e2574c;}.cls-28{fill:#d05046;}.cls-29{fill:#f0ddab;}.cls-30{fill:#ccd0d2;}.cls-31{fill:#d8c69a;}.cls-32{fill:#bcc0c2;}.cls-33{fill:#aeb1b3;}</style></defs><title>Fichier 2</title><g id="Calque_2" data-name="Calque 2"><g id="Calque_3" data-name="Calque 3"><path class="cls-1" d="M923,144.56a25,25,0,0,0-6.22,13.73L932,160.15l7.36-6.35-5.62-7.93Z"/><path class="cls-2" d="M971.14,150.42l-10.77-1.31L953,155.46l5.62,7.93,15.25,1.86A25.05,25.05,0,0,0,971.14,150.42Z"/><polygon class="cls-3" points="933.76 145.87 932.03 160.15 958.64 163.39 960.37 149.11 948.38 136.68 933.76 145.87"/><polygon class="cls-4" points="938.88 130.91 933.77 145.82 960.38 149.05 959 133.35 950.12 122.39 938.88 130.91"/><path class="cls-2" d="M964.95.49l-16.1,132.4A66.69,66.69,0,1,0,964.95.49Z"/><path class="cls-1" d="M1013.36,73.56C1017.81,37,996.13,4.29,964.95.49a66.69,66.69,0,1,0-16.1,132.4C980,136.68,1008.91,110.12,1013.36,73.56Z"/><path class="cls-5" d="M950.07,122.86l5.83-47.91L941,73.13l-4,33A15,15,0,0,0,950.07,122.86Z"/><path class="cls-4" d="M950.07,122.86a15,15,0,0,0,16.74-13.11l4-33L950.7,74.31l-4,33C945.69,115.54,947.2,122.51,950.07,122.86Z"/><path class="cls-5" d="M900.47,59.53l47.91,5.83,1.82-14.93-33-4A15,15,0,0,0,900.47,59.53Z"/><path class="cls-4" d="M900.47,59.53a15,15,0,0,0,13.11,16.74l33,4L949,60.16l-33-4C907.79,55.15,900.82,56.66,900.47,59.53Z"/><path class="cls-5" d="M963.8,9.93,958,57.84l14.93,1.82,4-33A15,15,0,0,0,963.8,9.93Z"/><path class="cls-4" d="M963.8,9.93A15,15,0,0,0,947.06,23l-4,33,20.12,2.45,4-33C968.18,17.25,966.67,10.28,963.8,9.93Z"/><path class="cls-5" d="M1013.4,73.26l-47.91-5.83-1.82,14.93,33,4A15,15,0,0,0,1013.4,73.26Z"/><path class="cls-4" d="M1013.4,73.26a15,15,0,0,0-13.11-16.74l-33-4-2.45,20.12,33,4C1006.08,77.64,1013,76.13,1013.4,73.26Z"/><path class="cls-6" d="M959.5,45.28,946.19,65.39l8.1,22.72a21.57,21.57,0,1,0,5.21-42.83Z"/><path class="cls-3" d="M935.48,64.09a21.6,21.6,0,0,0,18.81,24l5.21-42.83A21.6,21.6,0,0,0,935.48,64.09Z"/><circle class="cls-5" cx="956.9" cy="66.69" r="10.79" transform="translate(775.15 1008.54) rotate(-83.06)"/><path class="cls-5" d="M946,156.09a2.45,2.45,0,0,0-2.73,2.14l-.39,3.25,4.87.59.39-3.25A2.45,2.45,0,0,0,946,156.09Z"/><path class="cls-4" d="M976.84,168.07l-63.6-7.74a2.45,2.45,0,0,1,.59-4.87l63.6,7.74a2.45,2.45,0,0,1-.59,4.87Z"/><path class="cls-7" d="M103.5,159.52c0,2.57-4.71,4.65-10.52,4.65s-10.52-2.08-10.52-4.65"/><path id="SVGCleanerId_0" data-name="SVGCleanerId 0" class="cls-8" d="M90.07,6.27A46.48,46.48,0,0,0,55.55,80.12C66.38,94.87,72.8,112.39,72.8,130.7v2.53h40.48V131c0-18,5.45-35.7,16.47-49.88A46.47,46.47,0,0,0,90.07,6.27Z"/><path id="SVGCleanerId_0-2" data-name="SVGCleanerId 0" class="cls-8" d="M90.07,6.27A46.48,46.48,0,0,0,55.55,80.12C66.38,94.87,72.8,112.39,72.8,130.7v2.53h40.48V131c0-18,5.45-35.7,16.47-49.88A46.47,46.47,0,0,0,90.07,6.27Z"/><path class="cls-9" d="M81.08,133.23V132c0-18.3-6.42-35.82-17.25-50.58A46.48,46.48,0,0,1,98.35,7.58a47.36,47.36,0,0,1,6.17,0A46.49,46.49,0,0,0,46.6,50.76a46.3,46.3,0,0,0,8.94,29.35C66.38,94.87,72.8,112.39,72.8,130.7v2.53Z"/><rect class="cls-10" x="72.8" y="133.23" width="40.5" height="20.5"/><polygon class="cls-11" points="72.8 153.73 77.31 159.8 108.79 159.8 113.3 153.73 72.8 153.73"/><path class="cls-11" d="M113.83,132.3l-42.21,5.32a1.88,1.88,0,1,0,.66,3.71L114.49,136a1.88,1.88,0,0,0-.66-3.71Z"/><path class="cls-11" d="M113.83,143.51l-42.21,5.32a1.88,1.88,0,1,0,.66,3.71l42.21-5.32a1.88,1.88,0,0,0-.66-3.71Z"/><polygon class="cls-12" points="759.35 594.05 877.94 628.59 895.96 566.72 777.37 532.17 759.35 594.05"/><path class="cls-13" d="M836.69,616.58A10.73,10.73,0,0,0,850,609.27a13.42,13.42,0,0,1,16.65-9.14l-6.76,23.2Z"/><path class="cls-14" d="M838,583.39c-3.61-4.63-3.46-8.49-1.45-14.26a.07.07,0,0,0-.08-.08c-9.43,3.58-12.61,6.06-13.9,16a1.91,1.91,0,0,1-3.3,1.07c-2.31-2.47-4.68-4.64-3.74-8.46a.13.13,0,0,0-.2-.14c-3.5,2.64-7.9,5.23-10.19,13.08-3.62,12.44,10.22,25.84,26.09,20a17.57,17.57,0,0,0,10.36-10.5c1-2.81,3-8.52-3.58-16.71"/><path class="cls-15" d="M884.07,655.55,739.7,613.5a2.69,2.69,0,0,1-1.83-3.33l2.25-7.73a2.69,2.69,0,0,1,3.33-1.83l144.37,42.05a2.69,2.69,0,0,1,1.83,3.33l-2.25,7.73a2.69,2.69,0,0,1-3.33,1.83"/><path class="cls-16" d="M882.67,641.16l-134.06-39,2.25-7.73a2.69,2.69,0,0,1,3.33-1.83l128.9,37.55a2.69,2.69,0,0,1,1.83,3.33l-2.25,7.73Z"/><path class="cls-15" d="M771.24,505.22l144.37,42.05a2.69,2.69,0,0,1,1.83,3.33l-2.25,7.73a2.69,2.69,0,0,1-3.33,1.83L767.49,518.11a2.69,2.69,0,0,1-1.83-3.33l2.25-7.73a2.69,2.69,0,0,1,3.33-1.83"/><path class="cls-16" d="M772.64,519.61l134.06,39-2.25,7.73a2.69,2.69,0,0,1-3.33,1.83l-128.9-37.55a2.69,2.69,0,0,1-1.83-3.33l2.25-7.73Z"/><polygon class="cls-16" points="879.52 536.76 807.33 515.73 822.9 500.69 874.46 515.71 879.52 536.76"/><polygon class="cls-15" points="869.31 514.21 828.06 502.19 845.13 481.99 865.75 488 869.31 514.21"/><polygon class="cls-15" points="859.89 623.34 877.94 628.59 895.96 566.72 877.91 561.46 859.89 623.34"/><polygon class="cls-16" points="872.66 579.51 890.71 584.76 892.21 579.61 874.16 574.35 872.66 579.51"/><polygon class="cls-16" points="868.15 594.98 886.2 600.23 887.7 595.08 869.65 589.82 868.15 594.98"/><polygon class="cls-16" points="863.65 610.45 881.69 615.7 883.2 610.54 865.15 605.29 863.65 610.45"/><polygon class="cls-15" points="759.35 594.05 777.39 599.3 795.42 537.43 777.37 532.17 759.35 594.05"/><polygon class="cls-16" points="772.12 550.22 790.16 555.48 791.66 550.32 773.62 545.07 772.12 550.22"/><polygon class="cls-16" points="767.61 565.69 785.66 570.95 787.16 565.79 769.11 560.53 767.61 565.69"/><polygon class="cls-16" points="763.1 581.16 781.15 586.41 782.65 581.26 764.61 576 763.1 581.16"/><path class="cls-13" d="M800.6,606.06a10.73,10.73,0,0,1-7.31-13.32,13.42,13.42,0,0,0-9.14-16.65l-6.76,23.2Z"/><path class="cls-17" d="M828.92,596.48c-1.91-2.45-1.84-4.5-.77-7.55a0,0,0,0,0,0,0c-5,1.9-6.68,3.21-7.36,8.47a1,1,0,0,1-1.75.57c-1.22-1.31-2.48-2.46-2-4.48a.07.07,0,0,0-.1-.07c-1.85,1.4-4.19,2.77-5.4,6.93-1.92,6.59,5.41,13.69,13.82,10.6a9.32,9.32,0,0,0,5.49-5.56c.54-1.49,1.59-4.51-1.9-8.85"/><rect class="cls-18" x="825.43" y="390.8" width="252.79" height="46.24" transform="translate(-46.18 128.82) rotate(-7.56)"/><rect class="cls-19" x="1077.08" y="373.63" width="8.38" height="46.24" transform="translate(-42.8 145.71) rotate(-7.56)"/><rect class="cls-20" x="835.25" y="405.71" width="7.11" height="26.17" transform="translate(-47.81 114) rotate(-7.56)"/><rect class="cls-20" x="853.4" y="403.27" width="7.11" height="19.09" transform="translate(-46.86 116.33) rotate(-7.56)"/><rect class="cls-20" x="872.48" y="400.77" width="7.11" height="26.17" transform="translate(-46.83 118.85) rotate(-7.56)"/><rect class="cls-20" x="890.64" y="398.33" width="7.11" height="19.09" transform="translate(-45.89 121.19) rotate(-7.56)"/><rect class="cls-20" x="909.72" y="395.83" width="7.11" height="26.17" transform="translate(-45.86 123.71) rotate(-7.56)"/><rect class="cls-20" x="927.87" y="393.39" width="7.11" height="19.09" transform="translate(-44.92 126.04) rotate(-7.56)"/><rect class="cls-20" x="946.96" y="390.88" width="7.11" height="26.17" transform="translate(-44.89 128.56) rotate(-7.56)"/><rect class="cls-20" x="965.11" y="388.45" width="7.11" height="19.09" transform="translate(-43.94 130.9) rotate(-7.56)"/><rect class="cls-20" x="984.19" y="385.95" width="7.11" height="26.17" transform="translate(-43.91 133.42) rotate(-7.56)"/><rect class="cls-20" x="1002.34" y="383.52" width="7.1" height="19.09" transform="translate(-42.97 135.76) rotate(-7.56)"/><rect class="cls-20" x="1021.43" y="381.01" width="7.11" height="26.17" transform="translate(-42.9 138.13) rotate(-7.55)"/><rect class="cls-20" x="1058.66" y="376.08" width="7.11" height="26.17" transform="translate(-41.97 143.13) rotate(-7.56)"/><rect class="cls-20" x="1039.58" y="378.57" width="7.11" height="19.1" transform="translate(-42.03 140.77) rotate(-7.57)"/><rect class="cls-21" x="11.04" y="432.69" width="120.39" height="9.63" transform="translate(-88.44 24) rotate(-11.87)"/><path class="cls-22" d="M124.44,421.41,16,444.18,1.19,373.49A55.38,55.38,0,0,1,44,307.91h0a55.38,55.38,0,0,1,65.59,42.81Z"/><path class="cls-23" d="M21.63,435.63,8.26,372a48.16,48.16,0,1,1,94.26-19.8l13.37,63.62Z"/><path class="cls-24" d="M84.23,326.64a45.84,45.84,0,0,0-25.51-10.13L23.2,431.36l.3,1.41,29.85-6.27Z"/><path class="cls-25" d="M103.65,347a50.4,50.4,0,0,0-21.82-28l-.55-.33-.11-.06q-1.94-1.16-4-2.14l-.3-.14c-1.3-.61-2.62-1.18-4-1.68l-.56-.2c-1.26-.45-2.54-.87-3.84-1.22l-.89-.22c-1.2-.3-2.41-.58-3.63-.79-.42-.07-.85-.12-1.27-.19-1.11-.16-2.22-.32-3.36-.41-.58,0-1.17-.05-1.75-.08-1,0-2-.1-3-.08-.83,0-1.67.08-2.5.14s-1.52.07-2.29.15a48.94,48.94,0,0,0-4.86.76c-1.61.34-3.19.76-4.74,1.25-.75.23-1.46.53-2.19.79s-1.54.54-2.29.86c-.93.39-1.82.84-2.72,1.28-.51.25-1,.48-1.51.75-1,.54-2,1.14-2.95,1.74-.34.22-.69.42-1,.64-1,.69-2.05,1.43-3,2.2l-.68.52c-1.05.85-2.07,1.74-3,2.66l-.4.38q-1.55,1.5-3,3.12l-.21.24c-1,1.13-1.9,2.3-2.77,3.52l-.08.11-.55.77a50.39,50.39,0,0,0-8.65,34.28l-.24.05,1,4.71,6.93,33,6.93,33,47.13-9.9,51.84-10.89-6.93-33-1-4.71-5.94-28.28-1-4.71ZM113,414l-42.42,8.91L64.68,394.6l42.42-8.91Zm-6.93-33-41.37,8.69-3.58,11.58,4.75,22.62-12.57,2.64-29.85,6.27-.3-1.41L17.55,404.5l14.92-3.14,1.63-5.26-17.54,3.69-5.94-28.28,33.25-7,1.63-5.26L9.88,366.75a45.58,45.58,0,0,1,6.86-29L46.21,357l1.48-4.78L19.54,333.79a46,46,0,0,1,8.2-8.07l.52-.41c.82-.61,1.67-1.18,2.53-1.74l1.06-.66c.76-.46,1.54-.9,2.33-1.32.52-.27,1-.53,1.57-.78.7-.33,1.39-.66,2.1-1s1.48-.57,2.24-.84c.57-.2,1.12-.42,1.7-.6,1.37-.42,2.75-.8,4.18-1.1s2.85-.51,4.27-.67c.59-.07,1.18-.09,1.78-.13.81-.06,1.61-.12,2.41-.13s1.52,0,2.28,0c.6,0,1.2,0,1.8.08l.2,0h0c.3,0,.59.07.88.1.51,0,1,.09,1.53.15l.59.09c1.13.16,2.25.36,3.35.6l.31.06h0a45.67,45.67,0,0,1,8.68,2.92l.21.09q1.27.58,2.5,1.23h0A45.94,45.94,0,0,1,81,324.24h0l.1.07q1.47,1,2.85,2.1l.06,0,.25.19v0A45.43,45.43,0,0,1,98.92,348l-22.79,4.79-1.63,5.26,25.66-5.39Z"/><path class="cls-24" d="M65.09,317.45c-1.11-.24-2.22-.44-3.35-.6l.71.1C63.32,317.09,64.21,317.26,65.09,317.45Z"/><path class="cls-24" d="M74.09,320.43a45.67,45.67,0,0,0-8.68-2.92l.7.17A46.62,46.62,0,0,1,74.09,320.43Z"/><path class="cls-24" d="M81.06,324.3q1.46,1,2.85,2.1Q82.53,325.29,81.06,324.3Z"/><path class="cls-26" d="M57.75,361.61l16.76-3.52,1.63-5.26-16,3.37,20.86-32a45.94,45.94,0,0,0-4.14-2.47L54.2,356.42l-6.5-4.25L46.21,357l2.5,1.63-3.21.68-1.63,5.26L53,362.6,59,390.88,34.1,396.1l-1.63,5.26L60,395.59l1.19,5.66,3.58-11.58-1,.22Z"/><path class="cls-24" d="M58.72,316.51h0l.88.09C59.31,316.58,59,316.53,58.72,316.51Z"/><path class="cls-24" d="M74.3,320.52q1.26.58,2.5,1.23Q75.57,321.1,74.3,320.52Z"/><path class="cls-24" d="M84.23,326.64l-.25-.19.25.22Z"/><path class="cls-27" d="M201.66,515.4l81.66-16.9a7,7,0,0,1,8.21,5.4l18.3,88.47a7,7,0,0,1-5.4,8.21l-81.66,16.9a7,7,0,0,1-8.21-5.4l-18.3-88.47A7,7,0,0,1,201.66,515.4Z"/><path class="cls-28" d="M283.32,498.5l-81.66,16.9a7,7,0,0,0-5.4,8.21l.88,4.25a7,7,0,0,1,5.4-8.21l81.66-16.9a7,7,0,0,1,8.21,5.4l-.88-4.25A7,7,0,0,0,283.32,498.5Z"/><path class="cls-29" d="M212.63,525.55l64.65-13.38a3.48,3.48,0,0,1,4.11,2.7l14.78,71.46a3.48,3.48,0,0,1-2.7,4.11l-64.65,13.38a3.48,3.48,0,0,1-4.11-2.7l-14.78-71.46A3.48,3.48,0,0,1,212.63,525.55Z"/><path class="cls-30" d="M218.38,519l51-10.56a1.74,1.74,0,0,1,2.05,1.35l1.41,6.81a5.23,5.23,0,0,1-4,6.16l-44.23,9.15a5.23,5.23,0,0,1-6.16-4L217,521.09A1.74,1.74,0,0,1,218.38,519Z"/><path class="cls-31" d="M235.59,546.52,273,538.78a1.74,1.74,0,1,0-.7-3.4l-37.43,7.74a1.74,1.74,0,1,0,.7,3.4Zm38.49-2.64-37.43,7.74a1.74,1.74,0,1,0,.7,3.4l37.43-7.74a1.74,1.74,0,1,0-.7-3.4Zm1.76,8.51-37.43,7.74a1.74,1.74,0,0,0,.7,3.4l37.43-7.74a1.74,1.74,0,0,0-.7-3.4Zm-47.75-7.86-1.7.35a1.74,1.74,0,0,0,.7,3.4l1.7-.35a1.74,1.74,0,1,0-.7-3.4Zm1.76,8.51-1.7.35a1.74,1.74,0,1,0,.7,3.4l1.7-.35a1.74,1.74,0,1,0-.7-3.4Zm1.76,8.51-1.7.35a1.74,1.74,0,0,0,.7,3.4l1.7-.35a1.74,1.74,0,0,0-.7-3.4Zm46-.65-37.43,7.74a1.74,1.74,0,0,0,.7,3.4l37.43-7.74a1.74,1.74,0,0,0-.7-3.4Zm1.76,8.51-37.43,7.74a1.74,1.74,0,0,0,.7,3.4l37.43-7.74a1.74,1.74,0,0,0-.7-3.4Zm-46,.65-1.7.35a1.74,1.74,0,0,0,.7,3.4l1.7-.35a1.74,1.74,0,0,0-.7-3.4Zm1.76,8.51-1.7.35a1.74,1.74,0,0,0,.7,3.4l1.7-.35a1.74,1.74,0,0,0-.7-3.4Z"/><path class="cls-30" d="M230,502.44l22.12-4.58a5.23,5.23,0,0,1,6.16,4l1.76,8.51-32.33,6.69L226,508.6A5.23,5.23,0,0,1,230,502.44Z"/><path class="cls-32" d="M217,521.09l.7,3.4,54.44-11.26-.7-3.4a1.74,1.74,0,0,0-2.05-1.35l-51,10.56A1.74,1.74,0,0,0,217,521.09Z"/><path class="cls-33" d="M227,513.7,259.35,507l.7,3.4-32.33,6.69Z"/></g></g></svg>