<svg xmlns="http://www.w3.org/2000/svg" xmlns:xlink="http://www.w3.org/1999/xlink" viewBox="5772.721 1575.842 82.948 62.792"><defs><style>.a{fill:#00c1cb;}.b{filter:url(#a);}</style><filter id="a" x="5772.721" y="1575.842" width="82.948" height="62.792" filterUnits="userSpaceOnUse"><feOffset dy="3" input="SourceAlpha"/><feGaussianBlur stdDeviation="3" result="b"/><feFlood flood-opacity="0.161"/><feComposite operator="in" in2="b"/><feComposite in="SourceGraphic"/></filter></defs><g class="b" transform="matrix(1, 0, 0, 1, 0, 0)"><path class="a" d="M63.828,113.935H61.565a1.1,1.1,0,0,1-1.1-1.1v-3.9a28.959,28.959,0,0,0-3.987-14.6L42.937,99.309a1.1,1.1,0,0,1-.385.069,1.12,1.12,0,0,1-1.067-1.461l4.494-14.04a27.447,27.447,0,0,0-4.546-2.1V81.4a3.3,3.3,0,0,0-3.3-3.3H33.594V93.77a1.12,1.12,0,0,1-2.24,0V78.1H26.813a3.3,3.3,0,0,0-3.3,3.3v.365a27.4,27.4,0,0,0-4.874,2.225l4.813,13.9A1.12,1.12,0,0,1,22.4,99.378a1.108,1.108,0,0,1-.354-.058L8.1,94.672a27.909,27.909,0,0,0-3.618,13.665v4.5a1.1,1.1,0,0,1-1.1,1.1H1.12A1.12,1.12,0,0,0,0,115.055v6.719a1.12,1.12,0,0,0,1.12,1.12H63.828a1.12,1.12,0,0,0,1.12-1.12v-6.719A1.12,1.12,0,0,0,63.828,113.935Zm-12.318,2.24H13.438a1.12,1.12,0,0,1,0-2.24H51.511a1.12,1.12,0,1,1,0,2.24Z" transform="translate(5781.72 1503.74)"/></g></svg>