<svg xmlns="http://www.w3.org/2000/svg" viewBox="5452.979 3313.871 95.637 75.61"><defs><style>.a{fill:#00c1cb;}</style></defs><path class="a" d="M95.21,69.086a67.335,67.335,0,0,0-1.281-6.619,18,18,0,0,0-2.535-5.978q-1.681-2.455-3.763-2.455-.24-1.041-2.322.24t-1.947.854Q83.5,54.7,81.921,56.2L80.347,57.69l-1.575,1.574a13.7,13.7,0,0,1-6.057,3.015,42.988,42.988,0,0,1-8.726,1.281q-4.75.241-9.527.32t-9.58.48a34.946,34.946,0,0,0-7.738,1.361,49.9,49.9,0,0,0-10.888,5.1,46.586,46.586,0,0,0-9.1,7.419,31.851,31.851,0,0,0-6.351,9.847A30.386,30.386,0,0,0,8.485,99.826a31.883,31.883,0,0,0,.48,5.551,17.449,17.449,0,0,0,.854,2.348,13.173,13.173,0,0,1,.747,2.029q0,1.012-1.655,2.561A38.519,38.519,0,0,1,5.283,115.3a19.193,19.193,0,0,0-3.629,3.5A6.378,6.378,0,0,0,0,122.722a3.173,3.173,0,0,0,.08.721,2.455,2.455,0,0,0,.161.506c.053.107.151.285.293.533s.249.446.32.587A23.505,23.505,0,0,0,2.3,127.311a4.953,4.953,0,0,0,1.654,1.281,5.81,5.81,0,0,0,2.722.587,4.642,4.642,0,0,0,3.2-1.707,18.357,18.357,0,0,0,2.8-3.736,37.528,37.528,0,0,1,2.4-3.736q1.254-1.707,2.108-1.707,1.227,0,5.123,1.975T27,122.51a47.021,47.021,0,0,0,15.263,2.508,51.34,51.34,0,0,0,23.376-5.765,60.82,60.82,0,0,0,19.08-14.3,43.964,43.964,0,0,0,9.847-20.441,51.535,51.535,0,0,0,1.066-10.3A38.722,38.722,0,0,0,95.21,69.086ZM67.3,87.177a3.285,3.285,0,0,1-2.4,1.014,45.461,45.461,0,0,0-16.731,2.775,48.25,48.25,0,0,0-14.329,9.393q-1.066,1.014-3.575,3.522t-3.949,3.789a3.529,3.529,0,0,1-2.4,1.014,3.464,3.464,0,0,1-3.416-3.416,3.529,3.529,0,0,1,1.014-2.4A88.583,88.583,0,0,1,34.075,91.153,49.782,49.782,0,0,1,47.924,84a52.532,52.532,0,0,1,16.97-2.642,3.4,3.4,0,0,1,2.4,5.817Z" transform="translate(5452.979 3260.303)"/></svg>