<svg xmlns="http://www.w3.org/2000/svg" viewBox="0 0 1920 991"><defs><style>.cls-1{isolation:isolate;}.cls-2{fill:#7ce0f7;stroke:#000;}.cls-10,.cls-2,.cls-24,.cls-26,.cls-32,.cls-5{stroke-miterlimit:10;}.cls-28,.cls-3{fill:#f2eada;}.cls-4{fill:#91b0a9;}.cls-10,.cls-24,.cls-26,.cls-36,.cls-39,.cls-5{fill:none;}.cls-5{stroke:#dbcfb9;}.cls-10,.cls-24,.cls-26,.cls-32,.cls-36,.cls-39,.cls-5{stroke-width:0.5px;}.cls-6{fill:#c7e5d8;}.cls-7{fill:#b8d8ca;}.cls-12,.cls-8{fill:#ecf2e4;}.cls-34,.cls-8{opacity:0.5;}.cls-9{fill:#c0ddd0;}.cls-10{stroke:#769990;}.cls-11{opacity:0.49;}.cls-13{fill:#eb8830;}.cls-14{fill:#f4f0ea;}.cls-15{fill:#eae3d6;}.cls-16{fill:#d87227;}.cls-17{fill:#f29344;}.cls-18{fill:#e5802e;}.cls-19{fill:#d36d22;}.cls-20{fill:#dd7826;}.cls-21{fill:#7b9e95;}.cls-22{fill:#86a89f;}.cls-23{fill:#769990;}.cls-24{stroke:#648c80;}.cls-25,.cls-32{fill:#4c7e80;}.cls-26{stroke:#e8e0d6;}.cls-27{fill:#e5dccc;}.cls-28{opacity:0.53;}.cls-28,.cls-33{mix-blend-mode:multiply;}.cls-29{fill:#e5ddcf;}.cls-30{fill:#e8dfcf;}.cls-31{fill:#f4f0e9;}.cls-32{stroke:#3c6d6d;}.cls-33{fill:#ead9ad;}.cls-35{fill:#f9f7f4;}.cls-36{stroke:#eae7e4;}.cls-36,.cls-39{stroke-linecap:round;stroke-linejoin:round;}.cls-37{fill:#f2f0ed;}.cls-38{fill:#edebe8;}.cls-39{stroke:#e0dcd5;}.cls-40{fill:#d7d8b2;}.cls-41{fill:#7b8238;}.cls-42{fill:#777a34;}.cls-43{fill:#6a6d29;}.cls-44{fill:#d1c3ac;}</style></defs><title>Plan de travail 1</title><g class="cls-1"><g id="Calque_2" data-name="Calque 2"><rect class="cls-2" x="0.5" y="0.5" width="1919" height="991"/></g><g id="Calque_1" data-name="Calque 1"><polygon class="cls-3" points="1440.48 674.65 1100.14 674.65 1100.14 398.84 1440.48 317.16 1440.48 674.65"/><polygon class="cls-4" points="756.99 645.95 1100.14 645.95 1100.14 420.84 756.99 506.99 756.99 645.95"/><polygon class="cls-3" points="548.97 645.95 756.99 645.95 756.99 506.99 548.97 480.78 548.97 645.95"/><rect class="cls-3" x="800.83" y="519.67" width="55.43" height="115.1"/><rect class="cls-5" x="800.83" y="519.67" width="55.43" height="115.1"/><rect class="cls-6" x="775.6" y="554.1" width="105.89" height="46.23" transform="translate(1405.76 -251.33) rotate(90)"/><polygon class="cls-7" points="814.01 533.39 851.66 533.39 851.66 524.27 805.43 524.27 805.43 630.16 814.01 630.16 814.01 533.39"/><path class="cls-8" d="M851.66,538.05c-15.7,11.86-31.25,24.19-46.23,37v29.3c15.2-13.14,30.52-26.49,46.23-39.25Z"/><rect class="cls-3" x="962.31" y="519.67" width="137.83" height="112.8"/><rect class="cls-5" x="962.31" y="519.67" width="137.83" height="112.8"/><rect class="cls-6" x="1023.37" y="555.69" width="103.59" height="40.74" transform="translate(1651.23 -499.1) rotate(90)"/><rect class="cls-6" x="978.96" y="555.69" width="103.59" height="40.74" transform="translate(1606.82 -454.69) rotate(90)"/><rect class="cls-6" x="935.02" y="556.16" width="103.59" height="39.81" transform="translate(1562.88 -410.75) rotate(90)"/><polygon class="cls-9" points="1060.91 528.87 1095.54 528.87 1095.54 524.27 1054.8 524.27 1054.8 627.86 1060.91 627.86 1060.91 528.87"/><polygon class="cls-9" points="1016.5 528.87 1051.13 528.87 1051.13 524.27 1010.39 524.27 1010.39 627.86 1016.5 627.86 1016.5 528.87"/><polygon class="cls-9" points="973.02 528.87 1006.72 528.87 1006.72 524.27 966.91 524.27 966.91 627.86 973.02 627.86 973.02 528.87"/><path class="cls-8" d="M1095.54,524.27H1082.1c-9.22,6-18.31,12.28-27.31,18.65v25.71q20.33-13.53,40.74-26.9Z"/><path class="cls-8" d="M1095.54,554.29q-20.37,13.56-40.74,27.31v24.21c13.68-7.72,27.28-15.46,40.74-23.39Z"/><path class="cls-8" d="M1010.39,524.27v20.68c9.76-7.16,19.66-14.11,29.79-20.68Z"/><path class="cls-8" d="M1051.13,545.52c-13.71,9.79-27.24,19.85-40.74,29.92v22.7q20.39-13.5,40.74-27.08Z"/><path class="cls-8" d="M1051.13,584.07q-20.37,13.73-40.74,27.39v16.4H1016c11.74-6.76,23.47-13.39,35.16-20Z"/><path class="cls-8" d="M1006.72,578.18c-13.22,9.87-26.44,19.71-39.81,29.26v19.09q20-12.8,39.81-26Z"/><path class="cls-8" d="M1006.72,613.92q-10.49,7-21,13.94h21Z"/><path class="cls-8" d="M1006.72,524.27H966.91v54c13.17-10.27,26.36-20.62,39.81-30.59Z"/><rect class="cls-4" x="631.44" y="549.15" width="85.22" height="81.01"/><rect class="cls-10" x="631.44" y="549.15" width="85.22" height="81.01"/><rect class="cls-6" x="660.76" y="574.26" width="71.81" height="30.78" transform="translate(107.02 1286.32) rotate(-90)"/><rect class="cls-6" x="620.79" y="568.99" width="71.81" height="41.32" transform="translate(67.05 1246.35) rotate(-90)"/><polygon class="cls-7" points="685.88 561.36 712.06 561.36 712.06 553.75 681.28 553.75 681.28 625.56 685.88 625.56 685.88 561.36"/><polygon class="cls-7" points="640.64 561.36 677.36 561.36 677.36 553.75 636.04 553.75 636.04 625.56 640.64 625.56 640.64 561.36"/><g class="cls-11"><path class="cls-12" d="M712.06,553.75H708.8q-14,8.08-27.52,17v18c10.17-7.09,20.42-14,30.78-20.66Z"/><path class="cls-12" d="M712.06,588.2c-10.26,6.6-20.52,13.1-30.78,19.6v8.39c10.26-6.32,20.48-12.72,30.78-19Z"/><path class="cls-12" d="M677.36,573.3c-14,9.27-27.68,19.08-41.32,29.25V621c13.71-9.81,27.45-19.76,41.32-29.49Z"/><path class="cls-12" d="M677.36,610.28q-12,7.58-23.92,15.28h12.41q5.77-3.44,11.51-7Z"/></g><rect class="cls-13" x="315.44" y="642.53" width="832.69" height="23.05"/><rect class="cls-14" x="303.94" y="625.56" width="844.18" height="9.2"/><rect class="cls-15" x="310.7" y="634.76" width="837.43" height="7.77"/><rect class="cls-4" x="928.56" y="681.62" width="171.58" height="208.44"/><rect class="cls-13" x="394.89" y="681.62" width="515.13" height="221.93"/><rect class="cls-16" x="394.77" y="745.95" width="141.59" height="25.06"/><rect class="cls-16" x="769.62" y="758.49" width="134.48" height="25.06"/><rect class="cls-16" x="490.07" y="814.2" width="141.59" height="25.06"/><rect class="cls-16" x="658.99" y="832.5" width="141.59" height="25.06"/><rect class="cls-16" x="389.92" y="877.3" width="141.59" height="25.06"/><rect class="cls-16" x="439.8" y="710.93" width="104.92" height="13.8"/><rect class="cls-16" x="598.75" y="698.29" width="101.38" height="20.61"/><rect class="cls-16" x="777.85" y="872.58" width="101.38" height="20.61"/><rect class="cls-17" x="451.19" y="726.84" width="187.25" height="17.46"/><rect class="cls-17" x="715.83" y="721.04" width="187.25" height="17.46"/><rect class="cls-17" x="632.41" y="790.47" width="187.25" height="17.46"/><rect class="cls-17" x="394.77" y="791.33" width="187.25" height="10.69"/><rect class="cls-17" x="479.42" y="862.63" width="93.63" height="10.69"/><rect class="cls-18" x="521.23" y="773.07" width="115.83" height="14.88"/><rect class="cls-18" x="579.15" y="748.35" width="115.83" height="14.88"/><rect class="cls-18" x="747.51" y="686.27" width="115.83" height="14.88"/><rect class="cls-18" x="740.07" y="814.2" width="115.83" height="14.88"/><rect class="cls-18" x="393.28" y="842.68" width="115.83" height="14.88"/><rect class="cls-18" x="394.77" y="693.71" width="115.83" height="14.88"/><polygon class="cls-19" points="928.56 890.06 910.02 903.55 910.02 681.62 928.56 681.62 928.56 890.06"/><polygon class="cls-20" points="394.89 681.62 1100.14 681.62 1100.14 665.58 315.44 665.58 394.89 681.62"/><rect class="cls-3" x="1100.14" y="674.65" width="325.58" height="253.61"/><polygon class="cls-21" points="910.02 903.55 1100.14 903.55 1100.14 890.06 928.56 890.06 910.02 903.55"/><rect class="cls-4" x="910.02" y="903.55" width="190.12" height="8.95"/><rect class="cls-22" x="910.02" y="912.5" width="190.12" height="7.88"/><rect class="cls-4" x="910.02" y="920.38" width="190.12" height="7.88"/><rect class="cls-23" x="1143.14" y="749.15" width="233.27" height="179.11"/><rect class="cls-24" x="1143.14" y="749.15" width="233.27" height="179.11"/><rect class="cls-25" x="1172.52" y="728.97" width="174.51" height="224.07" transform="translate(2100.78 -418.77) rotate(90)"/><rect class="cls-3" x="937.57" y="712.35" width="45.22" height="96.14"/><rect class="cls-5" x="937.57" y="712.35" width="45.22" height="96.14"/><rect class="cls-13" x="1425.71" y="697.67" width="26.78" height="230.58"/><rect class="cls-13" x="1425.71" y="680.72" width="63.46" height="16.95"/><rect class="cls-6" x="916.7" y="742.41" width="86.94" height="36.02" transform="translate(1720.6 -199.75) rotate(90)"/><polygon class="cls-7" points="948.9 726.12 978.18 726.12 978.18 716.95 942.17 716.95 942.17 803.89 948.9 803.89 948.9 726.12"/><polygon class="cls-13" points="713.9 486.02 495.15 458.58 495.15 474.02 713.9 501.46 713.9 486.02"/><path class="cls-3" d="M491.12,457.82,713.9,486.64v-9.81L494,448.39a2.59,2.59,0,0,0-2.92,2.57Z"/><polygon class="cls-20" points="1100.14 398.84 741.15 486.64 698.06 486.64 716.66 501.91 756.99 506.99 1100.14 420.84 1100.14 398.84"/><polygon class="cls-19" points="741.15 486.64 698.06 486.64 713.9 501.46 756.99 506.99 741.15 486.64"/><polygon class="cls-13" points="698.06 471.2 741.16 470.58 741.15 486.64 698.06 486.64 698.06 471.2"/><polygon class="cls-13" points="741.16 470.58 1517.01 283.18 1516.98 298.62 741.15 486.64 741.16 470.58"/><path class="cls-15" d="M695.61,461.4h45.54a0,0,0,0,1,0,0v9.81a0,0,0,0,1,0,0h-46.3a0,0,0,0,1,0,0v-9.05A.76.76,0,0,1,695.61,461.4Z"/><path class="cls-3" d="M1525.55,281.26,741.13,471.2V461.4L1523,272.06a2,2,0,0,1,2.51,2Z"/><polygon class="cls-19" points="1516.98 298.62 1440.48 361.6 1440.48 317.16 1516.98 298.62"/><polygon class="cls-19" points="548.97 480.78 495.15 474.02 548.97 496.82 548.97 480.78"/><path class="cls-14" d="M1100.14,674.65h394.09a2.07,2.07,0,0,1,2.07,2.07v4.9a0,0,0,0,1,0,0H1100.14a0,0,0,0,1,0,0v-7A0,0,0,0,1,1100.14,674.65Z"/><path class="cls-26" d="M1100.14,674.65h394.09a2.07,2.07,0,0,1,2.07,2.07v4.9a0,0,0,0,1,0,0H1100.14a0,0,0,0,1,0,0v-7A0,0,0,0,1,1100.14,674.65Z"/><rect class="cls-27" x="1100.14" y="903.55" width="36.57" height="24.71"/><path class="cls-27" d="M1393.63,903.55h35.56a1,1,0,0,1,1,1v23.7a0,0,0,0,1,0,0h-36.57a0,0,0,0,1,0,0V903.55A0,0,0,0,1,1393.63,903.55Z"/><polygon class="cls-28" points="756.99 506.99 548.97 480.78 548.97 504.1 716.66 527.71 718 533.39 756.99 537.85 756.99 506.99"/><polygon class="cls-28" points="1100.14 451.9 756.99 538.05 756.99 506.99 1100.14 420.84 1100.14 451.9"/><rect class="cls-29" x="547.45" y="549.15" width="51.19" height="22.09" rx="0.52" ry="0.52"/><rect class="cls-30" x="574.73" y="531.37" width="30.97" height="13.37" rx="0.52" ry="0.52"/><rect class="cls-31" x="577.64" y="575.36" width="30.47" height="11.05" rx="0.52" ry="0.52"/><rect class="cls-29" x="1391.06" y="499.58" width="51.19" height="22.09" rx="0.52" ry="0.52"/><rect class="cls-30" x="1410.23" y="479.96" width="30.97" height="13.37" rx="0.52" ry="0.52"/><rect class="cls-30" x="1410.23" y="364.92" width="30.97" height="13.37" rx="0.52" ry="0.52"/><rect class="cls-29" x="1375.43" y="380.66" width="46.61" height="13.37" rx="0.52" ry="0.52"/><rect class="cls-31" x="1380.71" y="525.79" width="30.47" height="11.05" rx="0.52" ry="0.52"/><polygon class="cls-28" points="1440.48 352.82 1100.14 434.5 1100.14 398.84 1440.48 317.16 1440.48 352.82"/><rect class="cls-4" x="1283.17" y="490.11" width="54.95" height="118.35"/><rect class="cls-6" x="1256.07" y="526.41" width="109.15" height="45.75" transform="translate(1859.92 -761.36) rotate(90)"/><rect class="cls-4" x="1283.17" y="420.84" width="54.95" height="47.83"/><rect class="cls-10" x="1283.17" y="490.11" width="54.95" height="118.35"/><rect class="cls-10" x="1283.17" y="420.84" width="54.95" height="47.83"/><rect class="cls-6" x="1291.33" y="421.88" width="38.62" height="45.75" transform="translate(1755.39 -865.89) rotate(90)"/><polygon class="cls-9" points="1296.42 501.73 1333.52 501.73 1333.52 494.71 1287.77 494.71 1287.77 603.85 1296.42 603.85 1296.42 501.73"/><polygon class="cls-9" points="1296.42 432.46 1333.52 432.46 1333.52 425.44 1287.77 425.44 1287.77 464.06 1296.42 464.06 1296.42 432.46"/><path class="cls-8" d="M1333.52,534c-16.1,18.1-31.34,37.06-45.75,56.65v12.89a562.89,562.89,0,0,1,45.75-57.92Z"/><path class="cls-8" d="M1289.39,494.71l-1.62,2.73v45.85c10.83-16.37,21.67-32.63,32.86-48.57Z"/><path class="cls-8" d="M1333.52,425.44h-1.75q-12.25,19.15-24,38.62h25.75Z"/><rect class="cls-28" x="1100.14" y="681.62" width="325.58" height="23.18"/><rect class="cls-20" x="1425.71" y="697.67" width="26.78" height="17.22"/><rect class="cls-20" x="1433.79" y="738.42" width="19.52" height="7.02"/><rect class="cls-17" x="1425.71" y="749.15" width="22.56" height="3.16"/><rect class="cls-20" x="1427.84" y="780.98" width="25.47" height="11.9"/><rect class="cls-20" x="1426.37" y="895.23" width="16.77" height="5.95"/><rect class="cls-20" x="1425.79" y="864.22" width="25.47" height="11.9"/><rect class="cls-17" x="1425.71" y="804.47" width="23.94" height="5.49"/><rect class="cls-17" x="1429.37" y="823.25" width="23.94" height="5.49"/><rect class="cls-17" x="1429.37" y="887.92" width="23.94" height="5.49"/><rect class="cls-18" x="1433.79" y="811.74" width="18.71" height="8.62"/><rect class="cls-18" x="1434.19" y="908.75" width="18.71" height="8.62"/><rect class="cls-18" x="1426.69" y="848.56" width="23.67" height="8.62"/><line class="cls-32" x1="1147.74" y1="764.86" x2="1371.81" y2="764.86"/><line class="cls-32" x1="1147.74" y1="801.17" x2="1371.81" y2="801.17"/><line class="cls-32" x1="1147.74" y1="783.01" x2="1371.81" y2="783.01"/><line class="cls-32" x1="1147.74" y1="837.48" x2="1371.81" y2="837.48"/><line class="cls-32" x1="1147.74" y1="819.32" x2="1371.81" y2="819.32"/><line class="cls-32" x1="1147.74" y1="873.79" x2="1371.81" y2="873.79"/><line class="cls-32" x1="1147.74" y1="855.63" x2="1371.81" y2="855.63"/><line class="cls-32" x1="1147.74" y1="910.1" x2="1371.81" y2="910.1"/><line class="cls-32" x1="1147.74" y1="891.95" x2="1371.81" y2="891.95"/><line class="cls-32" x1="1147.74" y1="928.26" x2="1371.81" y2="928.26"/><rect class="cls-33" x="481.58" y="762.31" width="158.47" height="9.07"/><rect class="cls-3" x="481.58" y="700.2" width="158.47" height="62.11"/><rect class="cls-5" x="481.58" y="700.2" width="158.47" height="62.11"/><rect class="cls-6" x="534.42" y="708.64" width="52.91" height="45.23" transform="translate(1292.12 170.39) rotate(90)"/><rect class="cls-6" x="586.38" y="708.64" width="52.91" height="45.23" transform="translate(1344.09 118.42) rotate(90)"/><rect class="cls-6" x="482.4" y="708.59" width="52.91" height="45.33" transform="translate(1240.1 222.41) rotate(90)"/><polygon class="cls-7" points="542.86 712.91 583.48 712.91 583.48 704.8 538.25 704.8 538.25 757.71 542.86 757.71 542.86 712.91"/><polygon class="cls-7" points="594.82 712.91 635.45 712.91 635.45 704.8 590.22 704.8 590.22 757.71 594.82 757.71 594.82 712.91"/><polygon class="cls-7" points="490.78 712.91 531.52 712.91 531.52 704.8 486.18 704.8 486.18 757.71 490.78 757.71 490.78 712.91"/><g class="cls-34"><path class="cls-12" d="M583.48,704.8H562.91q-12.36,6.56-24.66,13.27v21.49q22.51-12.33,45.23-24.48Z"/><path class="cls-12" d="M583.48,738c-11.8,6.23-23.41,12.72-34.72,19.68h23.79q5.45-2.81,10.93-5.57Z"/><path class="cls-12" d="M590.22,704.8v6.73c4.25-2.25,8.49-4.5,12.76-6.73Z"/><path class="cls-12" d="M635.45,711.82c-15.15,7.54-30.3,15-45.23,22.69v14.27c15-7.46,30.09-14.69,45.23-21.84Z"/><path class="cls-12" d="M531.52,721.8c-15.35,8.52-30.52,17.36-45.33,26.75v9.17h19l26.34-14.45Z"/></g><rect class="cls-33" x="756.99" y="872.58" width="63.1" height="9.15"/><rect class="cls-3" x="756.99" y="700.2" width="63.1" height="172.38"/><rect class="cls-5" x="756.99" y="700.2" width="63.1" height="172.38"/><rect class="cls-6" x="734.76" y="787.25" width="107.56" height="53.89" transform="translate(1602.74 25.67) rotate(90)"/><rect class="cls-6" x="763.57" y="702.83" width="49.94" height="53.89" transform="translate(1518.31 -58.76) rotate(90)"/><polygon class="cls-7" points="771.76 767.97 815.48 767.97 815.48 760.42 761.59 760.42 761.59 867.98 771.76 867.98 771.76 767.97"/><polygon class="cls-7" points="771.76 712.35 815.48 712.35 815.48 704.8 761.59 704.8 761.59 754.74 771.76 754.74 771.76 712.35"/><g class="cls-34"><path class="cls-12" d="M772.74,760.42q-5.5,7.76-11.15,15.41v30.71c12.14-15.3,24.2-30.71,36.34-46.11Z"/><path class="cls-12" d="M815.48,793.18c-18.13,19-35.94,38.28-53.89,57V868h2.46c17.38-16.3,34.17-33.28,51.43-50.07Z"/><path class="cls-12" d="M815.48,738.3V704.8h-4.27c-11.58,16.57-22.84,33.39-34.44,49.94h25.65Q808.92,746.51,815.48,738.3Z"/></g><path class="cls-8" d="M978.18,717h-7.86c-10.64,13.87-18.78,29.8-28.15,44.4v20.76c11.78-15.56,23.93-30.69,36-45.62Z"/><path class="cls-8" d="M943.44,803.89h11.2c8.61-11.71,15.39-24,23.54-35.18V755.33C965.77,770.78,952.68,785.89,943.44,803.89Z"/><rect class="cls-28" x="394.89" y="681.62" width="515.13" height="53.95"/><rect class="cls-28" x="937.57" y="808.49" width="45.22" height="7.23"/><rect class="cls-35" x="1002.9" y="712.35" width="82.86" height="177.49" transform="translate(2088.67 1602.19) rotate(180)"/><rect class="cls-36" x="1002.9" y="712.35" width="82.86" height="177.49" transform="translate(2088.67 1602.19) rotate(180)"/><path class="cls-35" d="M1002.9,776.68V749.45C1004.47,758.53,1004,767.6,1002.9,776.68Z"/><path class="cls-37" d="M1002.9,878.93v10.91h82.86V836C1073.65,867.13,1036.74,885.21,1002.9,878.93Z"/><rect class="cls-38" x="1018.63" y="725.09" width="51.41" height="79.52" transform="translate(2088.67 1529.71) rotate(180)"/><rect class="cls-38" x="1018.63" y="725.09" width="51.41" height="79.52" transform="translate(2088.67 1529.71) rotate(180)"/><rect class="cls-38" x="1018.63" y="816.48" width="51.41" height="45.69" transform="translate(2088.67 1678.65) rotate(180)"/><rect class="cls-39" x="1018.63" y="725.09" width="51.41" height="79.52" transform="translate(2088.67 1529.71) rotate(180)"/><rect class="cls-39" x="1018.63" y="816.48" width="51.41" height="45.69" transform="translate(2088.67 1678.65) rotate(180)"/><rect class="cls-40" x="1008.16" y="799.2" width="3.9" height="34.61" rx="0.3" ry="0.3" transform="translate(2020.22 1633.01) rotate(180)"/><rect class="cls-28" x="928.56" y="681.62" width="171.58" height="98.88"/><path class="cls-41" d="M378.49,896.81S362,868.92,369,862.93s21,5,21,5,22.33-47.88,42.25-46.34,28.55,37.56,28.55,37.56,18.1-17.44,27.68-14.18,6.75,23,6.75,23,33.72-15.44,41.21-5-4.85,30.26-4.85,30.26Z"/><path class="cls-41" d="M579.15,902.37s-19.33-35.18-13-39.43,17.36,10.39,17.36,10.39,16.15-37.63,24.63-35.85S625.24,868,625.24,868s11.82-36.23,27.22-37.4c20-1.52,16.94,37.4,16.94,37.4s23.38-14.27,30.74-12.35,0,26.09,0,26.09,15.34-8.3,20.44-4.42-11.69,19.5-11.69,19.5Z"/><path class="cls-41" d="M797.93,893.2s-27.74-36.56-18.17-43.08,35.51,12.06,35.51,12.06,34.33-36.12,44.92-35.44S885,859.21,885,859.21s25-13.74,34.26-9.09-3.57,46.69-3.57,46.69Z"/><path class="cls-42" d="M531,878.71c-20.71-18.41-52.91,6.9-75.92-11.5-9.2-9.2-18.41-13.8-27.61-6.9-16.1,9.2-27.61,18.41-48.31,20.71-2.57,0-4.81,1.91-6.39,4.78,2.84,6.12,5.73,11,5.73,11l153-3.61a62.75,62.75,0,0,0,4.6-9.51A27.7,27.7,0,0,0,531,878.71Z"/><path class="cls-42" d="M705.77,896.94c-18.93-7.87-37-18.38-55.14-27.44-6.9-2.3-11.5,6.9-16.1,6.9-20.71,0-32.21-6.9-50.61,13.8,0,0-5.39,1.34-10,2,2.83,5.83,5.22,10.18,5.22,10.18Z"/><path class="cls-42" d="M820.87,878.71c-11,4.41-26.3-10.22-33.62-1.25,5.23,8.56,10.68,15.74,10.68,15.74l117.79,3.61s2.51-8.23,4.51-17.81c-20.56-3.45-42.44.57-62.55-9.49C846.18,862.6,832.38,876.4,820.87,878.71Z"/><path class="cls-43" d="M495.15,868a115.25,115.25,0,0,1,17.7-6.79,63.27,63.27,0,0,1,9.31-2,25.54,25.54,0,0,1,9.6.26,9.26,9.26,0,0,1,4.3,2.41,11.31,11.31,0,0,1,2.4,4.28,19.85,19.85,0,0,1,.31,9.58,51.58,51.58,0,0,1-7.26,17.48,66.41,66.41,0,0,0,4-8.57,44.34,44.34,0,0,0,2.52-9,20,20,0,0,0-.41-9.17,10.43,10.43,0,0,0-2.22-3.9,8.33,8.33,0,0,0-3.88-2.11,24.66,24.66,0,0,0-9.22-.32,74.27,74.27,0,0,0-9.22,1.83c-3,.79-6.06,1.72-9,2.75S498.08,866.8,495.15,868Z"/><path class="cls-43" d="M460.72,859.21a77.27,77.27,0,0,1,11.06-9.32,43.8,43.8,0,0,1,6.29-3.66,25.59,25.59,0,0,1,3.41-1.35,14.86,14.86,0,0,1,3.65-.72,8.91,8.91,0,0,1,3.74.55,8.27,8.27,0,0,1,3.11,2.16,14.29,14.29,0,0,1,3.12,6.66,40.3,40.3,0,0,1,.06,14.45,55.4,55.4,0,0,0,.13-7.2,34.94,34.94,0,0,0-.94-7.08,14.33,14.33,0,0,0-3-6.22,7.34,7.34,0,0,0-2.78-1.89,8,8,0,0,0-3.34-.45,13.9,13.9,0,0,0-3.42.63,24.67,24.67,0,0,0-3.31,1.26,53,53,0,0,0-6.24,3.48c-2,1.29-4,2.68-5.87,4.15S462.55,857.64,460.72,859.21Z"/><path class="cls-43" d="M389.92,868a169.83,169.83,0,0,1,14.13-25.09,93.77,93.77,0,0,1,9-11.3,40.17,40.17,0,0,1,11.46-8.88,15.93,15.93,0,0,1,7.19-1.55,17.7,17.7,0,0,1,7.09,1.87,29.76,29.76,0,0,1,10.66,9.76,66.49,66.49,0,0,1,6.84,12.71,91.4,91.4,0,0,1,4.44,13.7,99.07,99.07,0,0,0-4.89-13.5,66.24,66.24,0,0,0-7-12.45c-2.82-3.8-6.19-7.33-10.43-9.4a16.77,16.77,0,0,0-6.72-1.73,15,15,0,0,0-6.74,1.5,39.28,39.28,0,0,0-11.21,8.6,103.53,103.53,0,0,0-9,11.12c-2.79,3.89-5.36,7.94-7.81,12.05S392.1,863.7,389.92,868Z"/><path class="cls-43" d="M378.49,896.81a113.13,113.13,0,0,1-7.11-13.15,71,71,0,0,1-2.78-7,35.23,35.23,0,0,1-1.75-7.35,12.07,12.07,0,0,1,.19-3.87,4.33,4.33,0,0,1,.3-1,3.75,3.75,0,0,1,.46-.91,5,5,0,0,1,1.42-1.45,7.72,7.72,0,0,1,3.66-1.36,11.8,11.8,0,0,1,3.84.22c5,1.13,9.33,3.85,13.2,7a48.66,48.66,0,0,0-6.41-3.77,25.92,25.92,0,0,0-6.93-2.42c-2.36-.39-4.93-.3-6.83,1.12a4.38,4.38,0,0,0-1.78,2.79,11.23,11.23,0,0,0-.13,3.55c.51,4.85,2.37,9.54,4.24,14.1,1,2.29,2,4.55,3.07,6.78S377.34,894.6,378.49,896.81Z"/><path class="cls-43" d="M579.15,902.37c-2.74-4.63-5.24-9.4-7.57-14.26a110,110,0,0,1-6-15,35.82,35.82,0,0,1-.92-4,12.81,12.81,0,0,1-.13-4.17,3.78,3.78,0,0,1,1-2,4.43,4.43,0,0,1,2-1,6.75,6.75,0,0,1,4.19.52,23.3,23.3,0,0,1,6.6,4.77,49.3,49.3,0,0,1,5.24,6.15,56.86,56.86,0,0,0-5.58-5.79,22.88,22.88,0,0,0-6.55-4.42,6.32,6.32,0,0,0-3.69-.4,3.64,3.64,0,0,0-1.56.8,2.91,2.91,0,0,0-.69,1.57,12,12,0,0,0,.17,3.85,35.73,35.73,0,0,0,.94,3.86,121.74,121.74,0,0,0,5.75,15c1.08,2.46,2.21,4.89,3.37,7.32S578,900,579.15,902.37Z"/><path class="cls-43" d="M700.13,881.73A52.28,52.28,0,0,1,710.6,877a21.79,21.79,0,0,1,5.72-1.12,9,9,0,0,1,3,.33,4.9,4.9,0,0,1,1.42.68,4.44,4.44,0,0,1,.63.56,3.14,3.14,0,0,1,.43.75,4.73,4.73,0,0,1-.14,3.14A15,15,0,0,1,720.4,884a33.91,33.91,0,0,1-3.4,4.7,71.93,71.93,0,0,1-8.13,8.14c1.31-1.4,2.62-2.79,3.87-4.24s2.5-2.88,3.66-4.39a42.87,42.87,0,0,0,3.2-4.67,14.1,14.1,0,0,0,1.14-2.52,3.84,3.84,0,0,0,.12-2.48,2.71,2.71,0,0,0-1.85-1.45,8.08,8.08,0,0,0-2.68-.33,24.66,24.66,0,0,0-5.53,1,52.44,52.44,0,0,0-5.4,1.81C703.63,880.17,701.87,880.93,700.13,881.73Z"/><path class="cls-43" d="M669.4,868a136,136,0,0,1,13.29-7.65c2.28-1.17,4.63-2.2,7-3.15a33.07,33.07,0,0,1,7.46-2.12,7.81,7.81,0,0,1,1-.07,7,7,0,0,1,1,0,6.7,6.7,0,0,1,1,.16,4.07,4.07,0,0,1,1,.43,4.23,4.23,0,0,1,1.47,1.54,7.74,7.74,0,0,1,.73,1.9,16.76,16.76,0,0,1,.43,3.9,29.38,29.38,0,0,1-.23,3.87,75.84,75.84,0,0,1-3.47,14.94c.61-2.48,1.18-5,1.63-7.47a69.57,69.57,0,0,0,1.07-7.54,24.12,24.12,0,0,0-.31-7.46,4.42,4.42,0,0,0-1.81-2.84,3.1,3.1,0,0,0-.75-.31,5.76,5.76,0,0,0-.87-.12,8.94,8.94,0,0,0-1.81.07,32.23,32.23,0,0,0-7.25,2c-2.37.89-4.69,1.94-7,3s-4.59,2.2-6.86,3.37S671.64,866.76,669.4,868Z"/><path class="cls-43" d="M625.24,868a114.38,114.38,0,0,1,9.29-21.66,54.89,54.89,0,0,1,6.83-9.69,27.33,27.33,0,0,1,4.47-4,14.21,14.21,0,0,1,5.54-2.42,13,13,0,0,1,6.05.4,12.23,12.23,0,0,1,5.11,3.25,19.09,19.09,0,0,1,3.34,5,29.37,29.37,0,0,1,2,5.61A72.54,72.54,0,0,1,669.4,868a94.33,94.33,0,0,0-.3-11.75,60.64,60.64,0,0,0-2-11.53c-1.07-3.72-2.61-7.41-5.25-10.17a11.3,11.3,0,0,0-4.74-3,12.12,12.12,0,0,0-5.59-.33,13.25,13.25,0,0,0-5.18,2.22,26.41,26.41,0,0,0-4.34,3.81,59.36,59.36,0,0,0-6.83,9.46,109.1,109.1,0,0,0-5.42,10.41C628.1,860.67,626.61,864.3,625.24,868Z"/><path class="cls-43" d="M583.48,873.33A189.85,189.85,0,0,1,592,855q2.36-4.47,5.15-8.7c.94-1.41,1.92-2.79,3-4.11a23.71,23.71,0,0,1,3.58-3.69,8.33,8.33,0,0,1,2.31-1.33,3.83,3.83,0,0,1,2.78,0,7.36,7.36,0,0,1,2.3,1.36,14,14,0,0,1,1.83,1.84,41.35,41.35,0,0,1,5.32,8.66,120.45,120.45,0,0,1,7,18.93c-1.1-3.17-2.26-6.33-3.55-9.43s-2.61-6.18-4.12-9.16a44.6,44.6,0,0,0-5.32-8.41,9.5,9.5,0,0,0-3.75-2.89c-1.4-.58-2.92.25-4.16,1.23a34.74,34.74,0,0,0-6.43,7.52c-1.88,2.76-3.57,5.66-5.24,8.56s-3.23,5.88-4.74,8.87S584.93,870.29,583.48,873.33Z"/><path class="cls-43" d="M915.73,896.81c-9.82-.09-19.64-.3-29.46-.52l-29.45-.79-29.45-1-14.72-.59-14.72-.7,14.73.21,14.73.31,29.45.79,29.45,1C896.1,895.9,905.92,896.3,915.73,896.81Z"/><path class="cls-43" d="M885,859.21a102.68,102.68,0,0,1,19.36-8.66,34.21,34.21,0,0,1,10.53-1.83,9.6,9.6,0,0,1,5.32,1.45,5.87,5.87,0,0,1,1.69,2.3,12.27,12.27,0,0,1,.8,2.64,39.84,39.84,0,0,1,.08,10.7,104.69,104.69,0,0,1-1.64,10.51,186.83,186.83,0,0,1-5.44,20.5c.9-3.42,1.77-6.84,2.54-10.28s1.53-6.89,2.15-10.36,1.17-6.95,1.49-10.45a39.15,39.15,0,0,0-.15-10.42,7.31,7.31,0,0,0-2.11-4.37,8.82,8.82,0,0,0-4.75-1.29,35.89,35.89,0,0,0-10.29,1.66,93.59,93.59,0,0,0-9.94,3.54C891.4,856.16,888.19,857.63,885,859.21Z"/><path class="cls-43" d="M815.27,862.17q8.44-9.21,17.63-17.71c3-2.85,6.2-5.58,9.43-8.22a85.59,85.59,0,0,1,10.2-7.31,21,21,0,0,1,5.86-2.5,6.17,6.17,0,0,1,3.3.11,10.86,10.86,0,0,1,2.92,1.43,26.51,26.51,0,0,1,4.67,4.29,52.41,52.41,0,0,1,3.85,5,132.24,132.24,0,0,1,11.9,22c-1.84-3.73-3.77-7.42-5.86-11a116,116,0,0,0-6.68-10.5c-2.46-3.3-5.06-6.62-8.4-8.94-1.67-1.1-3.61-1.9-5.52-1.37A20.3,20.3,0,0,0,853,829.8,84.72,84.72,0,0,0,842.89,837c-3.24,2.59-6.37,5.33-9.49,8.08s-6.16,5.59-9.17,8.46S818.23,859.25,815.27,862.17Z"/><path class="cls-43" d="M797.93,893.2a177.33,177.33,0,0,1-12.55-18.13,91.16,91.16,0,0,1-5.17-9.78,45.38,45.38,0,0,1-2-5.19,18.69,18.69,0,0,1-1-5.56,7.1,7.1,0,0,1,.6-2.87,4.6,4.6,0,0,1,2-2.18,10.18,10.18,0,0,1,5.56-1.2,31.75,31.75,0,0,1,10.76,2.78,96.9,96.9,0,0,1,19,11.11c-3.07-2-6.21-3.92-9.44-5.66a84.64,84.64,0,0,0-9.89-4.73,32.87,32.87,0,0,0-10.5-2.58,9.26,9.26,0,0,0-5.05,1.11,4.52,4.52,0,0,0-2.13,4.25,17.78,17.78,0,0,0,.87,5.26,44.47,44.47,0,0,0,1.91,5.1,108.77,108.77,0,0,0,5,9.76c1.81,3.18,3.74,6.3,5.74,9.38S795.82,890.19,797.93,893.2Z"/><path class="cls-3" d="M360,888.29H923.32a2.93,2.93,0,0,1,2.93,2.93v37a0,0,0,0,1,0,0H354.53a0,0,0,0,1,0,0V893.79A5.5,5.5,0,0,1,360,888.29Z"/><rect class="cls-44" x="202" y="928.26" width="1573.64" height="10.83" rx="1.16" ry="1.16"/><rect class="cls-44" x="82" y="939" width="1774" height="15" rx="1.16" ry="1.16"/><rect class="cls-44" x="1" y="954" width="1911" height="11.09" rx="1.16" ry="1.16"/><rect class="cls-44" y="965" width="1920" height="13.09" rx="1.16" ry="1.16"/><rect class="cls-44" x="-3" y="978" width="1922" height="13.09" rx="1.16" ry="1.16"/></g></g></svg>