<svg xmlns="http://www.w3.org/2000/svg" viewBox="4844.026 816.221 69.974 50.588">
  <defs>
    <style>
      .cls-1 {
        fill: #00c1cb;
      }
    </style>
  </defs>
  <g id="icon_1_" data-name="icon (1)" transform="translate(4844.026 747.564)">
    <path id="Tracé_267" data-name="Tracé 267" class="cls-1" d="M69.974,74.93V96.112s-4.533.893-5.467,1.011-3.857,1.062-5.977-.976c-3.27-3.134-14.887-14.687-14.887-14.687s-2-1.966-5.219-.267c-2.952,1.556-7.329,3.837-9.157,4.725a4.207,4.207,0,0,1-6.32-3.3c0-1.724,1.076-2.895,2.614-3.755,4.168-2.527,12.954-7.458,16.613-9.4,2.224-1.183,3.827-1.284,6.88,1.288,3.761,3.163,7.108,6.046,7.108,6.046a3.478,3.478,0,0,0,2.833.544C63.269,76.432,69.974,74.93,69.974,74.93ZM23.733,110.821a3.7,3.7,0,0,0-4.438-5.116,3.817,3.817,0,0,0-.805-3.768,3.9,3.9,0,0,0-3.734-.944,3.813,3.813,0,0,0-.808-3.763,4.216,4.216,0,0,0-5.9.155c-1.726,1.656-2.831,4.656-1.291,6.422s3.3.688,4.651.381c-.375,1.336-1.5,2.579-.115,4.328s3.3.688,4.653.384c-.376,1.331-1.45,2.7-.12,4.321s3.539.76,4.99.309c-.56,1.44-1.759,2.992-.219,4.732s5.092.941,6.827-.715A4.139,4.139,0,0,0,27.8,111.7,3.942,3.942,0,0,0,23.733,110.821ZM55.407,99.8c-12.548-12.549-6.646-6.644-13.4-13.411a4.4,4.4,0,0,0-4.7-.847c-1.878.823-4.3,1.944-6.114,2.8a10.089,10.089,0,0,1-4.113,1.368A6.977,6.977,0,0,1,23.389,76.8c2.788-1.93,9.207-5.343,9.207-5.343a8.057,8.057,0,0,0-6.239-2.478c-4.282,0-13.228,5.861-13.228,5.861A6.992,6.992,0,0,1,6.973,75L0,72.57V96.808s1.991.576,3.78,1.307a7.97,7.97,0,0,1,1.96-3.1c2.968-2.827,7.888-2.856,10.588-.076A6.681,6.681,0,0,1,18,97.912a6.762,6.762,0,0,1,2.866,1.747,6.667,6.667,0,0,1,1.674,2.963,6.817,6.817,0,0,1,4.635,5,6.86,6.86,0,0,1,2.99,1.792,7.053,7.053,0,0,1,1.85,6.11.011.011,0,0,1,.011,0c.027.035,1.006,1.126,1.616,1.742a3.076,3.076,0,0,0,4.35-4.35c-.043-.043-4.316-4.513-3.972-4.859s5.786,5.321,5.887,5.425a3.074,3.074,0,0,0,4.347-4.347c-.059-.056-.3-.291-.395-.384,0,0-5.4-4.809-4.987-5.22s7.121,5.844,7.132,5.844a3.036,3.036,0,0,0,4.374-4.2c-.021-.064-5.11-5.382-4.713-5.782s5.438,4.78,5.449,4.79a3.076,3.076,0,0,0,4.347-4.353C55.444,99.822,55.423,99.811,55.407,99.8Z"/>
  </g>
</svg>
