<svg xmlns="http://www.w3.org/2000/svg" viewBox="5670 3320.516 119.803 69.442"><defs><style>.a{fill:#00c1cb;}</style></defs><g transform="translate(5670 3154.094)"><path class="a" d="M195.439,413.316l-35.738-11v18.371c0,8.493,16.006,15.379,35.749,15.379S231.2,429.18,231.2,420.687c0-.067-.022-.134-.023-.2V402.316Z" transform="translate(-135.538 -200.202)"/><path class="a" d="M0,189.467l12.767,4.567,1.088-2.33,4.69-.4.669.7-4.025.954-.587,1.736s-9.091,19-7.756,28.3c0,0,5.674,3.385,11.346,0L19.7,197.574v-2.116l8.443-1.9-.6,1.468-6.295,2.047,2.911,1.04,35.738,11,35.738-11,24.163-8.642L59.9,166.422Z"/></g></svg>