<svg xmlns="http://www.w3.org/2000/svg" viewBox="2379.5 3443.5 87 87">
  <defs>
    <style>
      .cls-1 {
        fill: #00c1cb;
      }
    </style>
  </defs>
  <g id="window" transform="translate(2379.5 3443.5)">
    <path id="Tracé_238" data-name="Tracé 238" class="cls-1" d="M87,8.7V0H0V8.7H2.9V78.3H0V87H87V78.3H84.1V8.7ZM2.9,2.9H84.1V5.8H2.9ZM84.1,84.1H2.9V81.2H84.1Zm-2.9-5.8H5.8V8.7H81.2Z"/>
    <path id="Tracé_239" data-name="Tracé 239" class="cls-1" d="M39.35,31H6V61.45H39.35Zm-2.9,27.55H8.9V33.9H36.45Z" transform="translate(2.7 13.95)"/>
    <path id="Tracé_240" data-name="Tracé 240" class="cls-1" d="M64.35,31H31V61.45H64.35Zm-2.9,27.55H33.9V33.9H61.45Z" transform="translate(13.95 13.95)"/>
    <path id="Tracé_241" data-name="Tracé 241" class="cls-1" d="M64.35,8H31V38.45H64.35Zm-2.9,27.55H33.9V10.9H61.45Z" transform="translate(13.95 3.6)"/>
    <path id="Tracé_242" data-name="Tracé 242" class="cls-1" d="M39.35,8H6V38.45H39.35Zm-2.9,27.55H8.9V10.9H36.45Z" transform="translate(2.7 3.6)"/>
    <path id="Tracé_243" data-name="Tracé 243" class="cls-1" d="M10.45,19.7a1.446,1.446,0,0,0,1.025-.425l5.8-5.8a1.45,1.45,0,0,0-2.05-2.05l-5.8,5.8A1.45,1.45,0,0,0,10.45,19.7Z" transform="translate(4.05 4.95)"/>
    <path id="Tracé_244" data-name="Tracé 244" class="cls-1" d="M10.45,23.8a1.446,1.446,0,0,0,1.025-.425l2.9-2.9a1.45,1.45,0,0,0-2.05-2.05l-2.9,2.9A1.45,1.45,0,0,0,10.45,23.8Z" transform="translate(4.05 8.1)"/>
    <path id="Tracé_245" data-name="Tracé 245" class="cls-1" d="M13.421,16.415a1.456,1.456,0,0,0,2.059,2.059,1.456,1.456,0,0,0-2.059-2.059Z" transform="translate(5.85 7.206)"/>
    <path id="Tracé_246" data-name="Tracé 246" class="cls-1" d="M15.425,17.825a1.449,1.449,0,0,0,2.05,0l4.35-4.35a1.45,1.45,0,1,0-2.05-2.05l-4.35,4.35A1.448,1.448,0,0,0,15.425,17.825Z" transform="translate(6.75 4.95)"/>
    <path id="Tracé_247" data-name="Tracé 247" class="cls-1" d="M35.45,19.7a1.446,1.446,0,0,0,1.025-.425l5.8-5.8a1.45,1.45,0,1,0-2.05-2.05l-5.8,5.8A1.45,1.45,0,0,0,35.45,19.7Z" transform="translate(15.3 4.95)"/>
    <path id="Tracé_248" data-name="Tracé 248" class="cls-1" d="M35.45,23.8a1.446,1.446,0,0,0,1.025-.425l2.9-2.9a1.45,1.45,0,0,0-2.05-2.05l-2.9,2.9A1.45,1.45,0,0,0,35.45,23.8Z" transform="translate(15.3 8.1)"/>
    <path id="Tracé_249" data-name="Tracé 249" class="cls-1" d="M38.421,16.415a1.45,1.45,0,1,0,2.059,0A1.522,1.522,0,0,0,38.421,16.415Z" transform="translate(17.1 7.206)"/>
    <path id="Tracé_250" data-name="Tracé 250" class="cls-1" d="M40.425,17.825a1.449,1.449,0,0,0,2.05,0l4.35-4.35a1.45,1.45,0,1,0-2.05-2.05l-4.35,4.35A1.448,1.448,0,0,0,40.425,17.825Z" transform="translate(18 4.95)"/>
    <path id="Tracé_251" data-name="Tracé 251" class="cls-1" d="M35.45,42.7a1.446,1.446,0,0,0,1.025-.425l5.8-5.8a1.45,1.45,0,1,0-2.05-2.05l-5.8,5.8A1.45,1.45,0,0,0,35.45,42.7Z" transform="translate(15.3 15.3)"/>
    <path id="Tracé_252" data-name="Tracé 252" class="cls-1" d="M35.45,46.8a1.446,1.446,0,0,0,1.025-.425l2.9-2.9a1.45,1.45,0,1,0-2.05-2.05l-2.9,2.9A1.45,1.45,0,0,0,35.45,46.8Z" transform="translate(15.3 18.45)"/>
    <path id="Tracé_253" data-name="Tracé 253" class="cls-1" d="M38.421,39.415A1.522,1.522,0,0,0,38,40.444a1.5,1.5,0,0,0,.421,1.029,1.47,1.47,0,0,0,2.059,0,1.5,1.5,0,0,0,.421-1.029,1.45,1.45,0,0,0-2.479-1.029Z" transform="translate(17.1 17.556)"/>
    <path id="Tracé_254" data-name="Tracé 254" class="cls-1" d="M40.425,40.825a1.449,1.449,0,0,0,2.05,0l4.35-4.35a1.45,1.45,0,1,0-2.05-2.05l-4.35,4.35A1.448,1.448,0,0,0,40.425,40.825Z" transform="translate(18 15.3)"/>
    <path id="Tracé_255" data-name="Tracé 255" class="cls-1" d="M10.45,42.7a1.446,1.446,0,0,0,1.025-.425l5.8-5.8a1.45,1.45,0,1,0-2.05-2.05l-5.8,5.8A1.45,1.45,0,0,0,10.45,42.7Z" transform="translate(4.05 15.3)"/>
    <path id="Tracé_256" data-name="Tracé 256" class="cls-1" d="M10.45,46.8a1.446,1.446,0,0,0,1.025-.425l2.9-2.9a1.45,1.45,0,1,0-2.05-2.05l-2.9,2.9A1.45,1.45,0,0,0,10.45,46.8Z" transform="translate(4.05 18.45)"/>
    <path id="Tracé_257" data-name="Tracé 257" class="cls-1" d="M13.421,39.415A1.522,1.522,0,0,0,13,40.444a1.5,1.5,0,0,0,.421,1.029A1.45,1.45,0,0,0,15.9,40.444a1.457,1.457,0,0,0-.421-1.029A1.518,1.518,0,0,0,13.421,39.415Z" transform="translate(5.85 17.556)"/>
    <path id="Tracé_258" data-name="Tracé 258" class="cls-1" d="M15.425,40.825a1.449,1.449,0,0,0,2.05,0l4.35-4.35a1.45,1.45,0,1,0-2.05-2.05l-4.35,4.35A1.448,1.448,0,0,0,15.425,40.825Z" transform="translate(6.75 15.3)"/>
  </g>
</svg>
